<svg width="1024" height="1024" viewBox="0 0 1024 1024" fill="none" xmlns="http://www.w3.org/2000/svg">
<!-- Transparent background - logo centered in safe zone (inner 66%) -->
<!-- Safe zone is approximately 170px padding on each side -->
<g transform="translate(362, 312) scale(10)">
<path d="M29.2903 11.4194V4.3871C29.2903 2 27.0968 0 24.4839 0H4.80645C2.16129 0 0 2 0 4.3871V26.5161L13.0968 40H24.4516C27.0968 40 29.2581 38 29.2581 35.6129V28.5806H22.0645V31.9032C22.0645 32.4839 21.5484 32.9355 20.9355 32.9355H8.35484C7.74194 32.9355 7.22581 32.4839 7.22581 31.9032V8.12903C7.22581 7.54839 7.74194 7.09677 8.35484 7.09677H20.9355C21.5484 7.09677 22.0645 7.54839 22.0645 8.12903V11.4516H29.2903V11.4194Z" fill="white"/>
<path d="M13.0968 40V31C13.0968 28.5484 10.871 26.5161 8.22581 26.5161H0L13.0968 40Z" fill="url(#paint0_linear)"/>
<path d="M22.0967 14.0324C22.0967 13.6775 22.3547 13.3872 22.7096 13.3872H27.5806C27.9031 13.3872 28.1935 13.6775 28.1935 14.0324C28.1935 14.3872 27.9354 14.6775 27.5806 14.6775H22.7096C22.387 14.6775 22.0967 14.3872 22.0967 14.0324Z" fill="white"/>
<path d="M22.0967 16.9354C22.0967 16.5806 22.387 16.2903 22.7418 16.2903H28.6451C28.9999 16.2903 29.2902 16.5806 29.2902 16.9354C29.2902 17.2903 28.9999 17.5806 28.6451 17.5806H22.7418C22.387 17.5806 22.0967 17.2903 22.0967 16.9354Z" fill="white"/>
<path d="M22.0967 19.871C22.0967 19.5162 22.387 19.2258 22.7418 19.2258H26.4838C26.8386 19.2258 27.1289 19.5162 27.1289 19.871C27.1289 20.2258 26.8386 20.5162 26.4838 20.5162H22.7418C22.387 20.5162 22.0967 20.2258 22.0967 19.871Z" fill="white"/>
<path d="M22.0967 22.7743C22.0967 22.4195 22.387 22.1292 22.7418 22.1292H27.8386C28.1935 22.1292 28.4838 22.4195 28.4838 22.7743C28.4838 23.1292 28.1935 23.4195 27.8386 23.4195H22.7418C22.387 23.4195 22.0967 23.1292 22.0967 22.7743Z" fill="white"/>
<path d="M22.0967 25.6774C22.0967 25.3225 22.387 25.0322 22.7418 25.0322H25.1935C25.5483 25.0322 25.8386 25.3225 25.8386 25.6774C25.8386 26.0322 25.5483 26.3225 25.1935 26.3225H22.7418C22.387 26.3225 22.0967 26.0322 22.0967 25.6774Z" fill="white"/>
<path d="M15.581 20.7099H12.0972L11.3875 21.8712H10.0972L13.0004 17.2583C13.1617 16.968 13.3875 16.7744 13.8391 16.7744C14.2907 16.7744 14.4843 16.968 14.6778 17.2583L17.581 21.8712H16.2907L15.581 20.7099ZM12.6133 19.8389H15.0327L13.8068 17.8712L12.6133 19.8389Z" fill="white"/>
<path d="M18.0972 21.8711V16.8389H19.2262V21.8389H18.0972V21.8711Z" fill="white"/>
<path d="M16.6132 17.5485C16.4197 16.871 16.1939 16.6452 15.4842 16.5485C15.3874 16.5485 15.3874 16.4194 15.4842 16.3872C16.1616 16.1936 16.3874 15.9678 16.4842 15.2581C16.4842 15.1614 16.6132 15.1614 16.6455 15.2581C16.839 15.9355 17.0648 16.1614 17.7745 16.2581C17.8713 16.2581 17.8713 16.3872 17.7745 16.4194C17.0971 16.613 16.8713 16.8388 16.7745 17.5485C16.7423 17.613 16.6455 17.613 16.6132 17.5485Z" fill="white"/>
</g>
<defs>
<linearGradient id="paint0_linear" x1="13.0952" y1="33.2645" x2="0" y2="33.2645" gradientUnits="userSpaceOnUse">
<stop stop-color="#3D72DC"/>
<stop offset="1" stop-color="#273DD5"/>
</linearGradient>
</defs>
</svg>
