<svg width="207" height="44" viewBox="0 0 207 44" fill="none" xmlns="http://www.w3.org/2000/svg">
<path d="M23.1844 38.5861L26.1546 38.5861L12.1784 38.6654C7.76292 38.6904 4.16057 35.1334 4.1297 30.718L4.00021 12.1958C3.96932 7.77759 7.52593 4.17246 11.9441 4.14349L33.7885 4.00023C38.2668 3.97085 41.8985 7.62319 41.8438 12.1012L41.822 13.8836" stroke="white" stroke-width="8"/>
<path d="M21.4229 38.3843L26.2281 34.5219L26.2665 42.6739L15.7468 42.6967L21.4229 38.3843Z" fill="#437EF4"/>
<path d="M41.6247 10.2551L45.7939 6.39008L45.822 14.5421L36.7001 14.5705L41.6247 10.2551Z" fill="#437EF4"/>
<path d="M35.3765 26.6196L35.8825 26.5976H35.9044C36.3004 26.5976 36.5131 26.6416 36.5424 26.7296C36.5571 26.7883 36.7551 29.1643 37.1364 33.8576C37.5031 38.5803 37.7011 40.9563 37.7304 40.9856C37.7451 41.0003 37.7964 41.0223 37.8844 41.0516C38.0604 41.0956 38.4858 41.1176 39.1604 41.1176H39.6004L39.6884 41.1836C39.7324 41.2569 39.7545 41.3083 39.7545 41.3376L39.5565 42.2176C39.5124 42.3056 39.3511 42.3423 39.0724 42.3276C39.0138 42.3276 38.9038 42.3276 38.7424 42.3276C36.6158 42.2689 34.8778 42.2763 33.5284 42.3496H33.2644L33.1984 42.2836C33.1398 42.2249 33.1104 42.1663 33.1104 42.1076C33.1104 41.8729 33.1838 41.5869 33.3304 41.2496C33.3598 41.1616 33.5724 41.1176 33.9684 41.1176C34.3204 41.0883 34.5551 41.0736 34.6724 41.0736C35.0098 41.0149 35.1931 40.9563 35.2224 40.8976C35.2371 40.8829 35.2078 40.3989 35.1344 39.4456C35.0611 38.5949 35.0244 38.1109 35.0244 37.9936C35.0244 37.9643 34.1884 37.9496 32.5164 37.9496H29.9864L29.3264 39.1156C28.8571 39.9076 28.6151 40.3403 28.6004 40.4136C28.5418 40.5603 28.5638 40.6849 28.6664 40.7876C28.8131 40.9636 29.1284 41.0736 29.6124 41.1176C29.8178 41.1176 29.9498 41.1689 30.0084 41.2716L30.0304 41.3376L29.9204 41.7776C29.8618 42.0563 29.8031 42.2249 29.7444 42.2836L29.6784 42.3496H29.4144C28.1971 42.2909 27.0458 42.2763 25.9604 42.3056C25.2124 42.3349 24.8311 42.3496 24.8164 42.3496H24.6624L24.5964 42.2836C24.5378 42.2249 24.5084 42.1736 24.5084 42.1296L24.7064 41.2496C24.7651 41.1616 24.9338 41.1176 25.2124 41.1176C26.2391 41.0736 26.9504 40.7803 27.3464 40.2376L31.3284 33.4176C33.8805 29.0029 35.1858 26.7663 35.2444 26.7076C35.2591 26.6929 35.3031 26.6636 35.3765 26.6196ZM34.6724 33.5496C34.5111 31.4523 34.4304 30.3889 34.4304 30.3596C34.4304 30.3009 34.1078 30.8363 33.4624 31.9656L31.6144 35.1556L30.7124 36.6956L32.8024 36.7176H34.9144C34.9144 36.7323 34.8338 35.6763 34.6724 33.5496Z" fill="white"/>
<circle cx="41.7384" cy="17.3496" r="2" fill="#00FFF7"/>
<path d="M41.7384 20.3496V29.3496C41.7384 30.4542 42.6339 31.3496 43.7384 31.3496C44.843 31.3496 45.7384 32.245 45.7384 33.3496V34.5877C45.7384 35.6923 44.843 36.5877 43.7384 36.5877C42.6339 36.5877 41.7384 37.4831 41.7384 38.5877V42.3496" stroke="white" stroke-width="3"/>
<line x1="29.4884" y1="24.5996" x2="34.9884" y2="24.5996" stroke="#00FFF7" stroke-width="1.5" stroke-linecap="round"/>
<line x1="29.4884" y1="27.5996" x2="31.9884" y2="27.5996" stroke="#00FFF7" stroke-width="1.5" stroke-linecap="round"/>
<line x1="29.4884" y1="30.5996" x2="30.9884" y2="30.5996" stroke="#00FFF7" stroke-width="1.5" stroke-linecap="round"/>
<path d="M57.6665 22.8108C57.6665 21.3167 57.9497 19.9153 58.5161 18.6067C59.0923 17.2883 59.8736 16.1604 60.8599 15.2229C61.856 14.2854 63.0474 13.5481 64.4341 13.011C65.8208 12.4641 67.2954 12.1907 68.8579 12.1907C70.3716 12.1907 71.8706 12.5081 73.355 13.1428C74.8394 13.7678 76.0992 14.6125 77.1343 15.677L74.3804 19.0315C73.6577 18.2014 72.8081 17.5422 71.8316 17.054C70.855 16.5559 69.8833 16.3069 68.9165 16.3069C67.1099 16.3069 65.5913 16.927 64.3609 18.1672C63.1402 19.3977 62.5298 20.926 62.5298 22.7522C62.5298 24.5784 63.1402 26.1165 64.3609 27.3665C65.5913 28.6067 67.1099 29.2268 68.9165 29.2268C69.854 29.2268 70.8111 29.0071 71.7876 28.5676C72.7642 28.1184 73.6284 27.5178 74.3804 26.7659L77.1636 29.7981C76.0406 30.9504 74.7222 31.8635 73.2085 32.5374C71.7046 33.2112 70.1958 33.5481 68.6822 33.5481C66.6216 33.5481 64.7466 33.0793 63.0572 32.1418C61.3775 31.2043 60.0591 29.9153 59.1021 28.2747C58.1451 26.634 57.6665 24.8127 57.6665 22.8108ZM80.064 39.1584V17.2004H84.6783V19.5735C85.8599 17.8938 87.5591 17.054 89.7759 17.054C92.0415 17.054 93.8726 17.8157 95.2691 19.3391C96.6656 20.8625 97.3638 22.8694 97.3638 25.3596C97.3638 27.8108 96.6753 29.7834 95.2984 31.2776C93.9312 32.7717 92.1197 33.5188 89.8638 33.5188C87.6177 33.5188 85.8892 32.679 84.6783 30.9993V39.1584H80.064ZM84.6783 25.2131C84.6783 26.5413 85.0493 27.6204 85.7915 28.4504C86.5435 29.2708 87.5152 29.6809 88.7066 29.6809C89.8882 29.6809 90.8452 29.2659 91.5777 28.4358C92.3199 27.6057 92.6909 26.5315 92.6909 25.2131C92.6909 23.9143 92.3199 22.8499 91.5777 22.0198C90.8452 21.1897 89.8882 20.7747 88.7066 20.7747C87.5249 20.7747 86.5581 21.1897 85.8062 22.0198C85.0542 22.8401 84.6783 23.9045 84.6783 25.2131ZM100.513 33.343V12.3372H109.419C111.568 12.3372 113.477 12.7815 115.147 13.6702C116.827 14.5491 118.13 15.7893 119.058 17.3909C119.996 18.9827 120.464 20.7991 120.464 22.8401C120.464 24.8811 119.991 26.6975 119.043 28.2893C118.106 29.8811 116.783 31.1213 115.074 32.01C113.375 32.8987 111.431 33.343 109.244 33.343H100.513ZM105.245 29.3586H109.537C111.304 29.3586 112.759 28.7532 113.902 27.5422C115.054 26.3313 115.63 24.7737 115.63 22.8694C115.63 20.9553 115.035 19.3879 113.843 18.1672C112.652 16.9465 111.148 16.3362 109.332 16.3362H105.245V29.3586ZM122.222 28.509C122.222 26.9856 122.754 25.7991 123.819 24.9495C124.883 24.0901 126.397 23.6555 128.36 23.6458H132.798V23.3528C132.798 22.4836 132.515 21.8196 131.949 21.3606C131.382 20.8918 130.547 20.6575 129.444 20.6575C127.95 20.6575 126.348 21.1262 124.639 22.0637L123.204 18.885C124.483 18.2502 125.679 17.7815 126.793 17.4788C127.916 17.176 129.151 17.0247 130.499 17.0247C132.657 17.0247 134.332 17.5325 135.523 18.5481C136.714 19.5637 137.32 20.9846 137.339 22.8108L137.369 33.343H132.842V31.4534C131.719 32.8499 130.025 33.5481 127.759 33.5481C126.06 33.5481 124.712 33.0842 123.716 32.1565C122.72 31.219 122.222 30.0032 122.222 28.509ZM126.529 28.2161C126.529 28.8313 126.753 29.3245 127.203 29.6956C127.662 30.0667 128.277 30.2522 129.048 30.2522C130.015 30.2522 130.845 30.0227 131.539 29.5637C132.242 29.095 132.662 28.5139 132.798 27.8206V26.385H129.18C128.282 26.385 127.613 26.5315 127.173 26.8245C126.744 27.1174 126.529 27.5813 126.529 28.2161ZM139.668 31.2776L141.163 28.1575C141.993 28.7922 142.906 29.2854 143.902 29.637C144.908 29.9885 145.865 30.1643 146.773 30.1643C147.388 30.1643 147.881 30.0618 148.252 29.8567C148.633 29.6418 148.824 29.3245 148.824 28.9045C148.824 28.6018 148.702 28.3333 148.458 28.0989C148.223 27.8645 147.906 27.679 147.505 27.5422C147.115 27.4055 146.67 27.259 146.172 27.1028C145.674 26.9368 145.162 26.7805 144.634 26.634C144.107 26.4875 143.594 26.2825 143.096 26.0188C142.598 25.7551 142.149 25.4622 141.749 25.1399C141.358 24.8176 141.041 24.3879 140.796 23.8508C140.562 23.3137 140.445 22.7083 140.445 22.0344C140.445 20.9602 140.733 20.0374 141.309 19.2659C141.885 18.4944 142.647 17.9231 143.594 17.552C144.542 17.1809 145.611 16.9954 146.802 16.9954C149.107 16.9954 151.207 17.5959 153.101 18.7971L151.519 21.9465C149.664 20.9016 148.023 20.3792 146.597 20.3792C146.031 20.3792 145.577 20.4817 145.235 20.6868C144.903 20.8821 144.737 21.1799 144.737 21.5803C144.737 21.8635 144.859 22.1174 145.103 22.342C145.347 22.5667 145.669 22.7473 146.07 22.884C146.47 23.0208 146.924 23.1721 147.432 23.3381C147.94 23.4944 148.458 23.6506 148.985 23.8069C149.522 23.9534 150.044 24.1633 150.552 24.4368C151.06 24.7004 151.514 25.0032 151.915 25.345C152.315 25.677 152.632 26.1116 152.867 26.6487C153.111 27.1858 153.233 27.7961 153.233 28.4797C153.233 29.5442 152.935 30.4622 152.339 31.2336C151.753 32.0051 150.967 32.5813 149.981 32.9622C149.004 33.3333 147.896 33.5188 146.656 33.5188C145.337 33.5188 144.068 33.3284 142.847 32.9475C141.636 32.5569 140.577 32.0002 139.668 31.2776ZM156.47 33.343V11.0774H161.085V20.0569C162.217 18.0647 164.078 17.054 166.666 17.0247C168.482 17.0247 169.927 17.5862 171.001 18.7092C172.076 19.8225 172.613 21.3215 172.613 23.2063V33.343H167.984V24.554C167.984 23.5383 167.701 22.7375 167.134 22.1516C166.568 21.5559 165.792 21.2581 164.805 21.2581C163.663 21.2678 162.754 21.6584 162.081 22.4299C161.417 23.1917 161.085 24.178 161.085 25.3889V33.343H156.47ZM174.253 33.343L183.365 12.3372H188.257L197.237 33.343H192.168L190.513 29.2561H180.787L179.146 33.343H174.253ZM182.354 25.4475H188.975L185.679 17.2883L182.354 25.4475ZM199.83 14.4758C199.371 13.9875 199.141 13.3674 199.141 12.6155C199.141 11.8635 199.371 11.2483 199.83 10.7698C200.298 10.2815 200.899 10.0374 201.631 10.0374C202.364 10.0374 202.96 10.2815 203.418 10.7698C203.887 11.2483 204.122 11.8635 204.122 12.6155C204.122 13.3674 203.887 13.9875 203.418 14.4758C202.96 14.9543 202.364 15.1936 201.631 15.1936C200.899 15.1936 200.298 14.9543 199.83 14.4758ZM199.332 33.343V17.2004H203.946V33.343H199.332Z" fill="white"/>
</svg>
