<svg width="35" height="35" viewBox="0 0 35 35" fill="none" xmlns="http://www.w3.org/2000/svg">
<path d="M17.5003 24.7917C12.2651 24.7917 8.02116 20.5477 8.02116 15.3125V6.64352C8.02116 5.88786 8.02116 5.51003 8.15779 5.21702C8.30269 4.90628 8.55244 4.65653 8.86317 4.51163C9.15619 4.375 9.53402 4.375 10.2897 4.375H24.711C25.4666 4.375 25.8445 4.375 26.1375 4.51163C26.4482 4.65653 26.698 4.90628 26.8429 5.21702C26.9795 5.51003 26.9795 5.88786 26.9795 6.64352V15.3125C26.9795 20.5477 22.7355 24.7917 17.5003 24.7917ZM17.5003 24.7917V30.625M24.792 30.625H10.2087M32.0837 7.29167V14.5833M2.91699 7.29167V14.5833" stroke="#0F172A" stroke-width="2" stroke-linecap="round" stroke-linejoin="round"/>
</svg>
