<svg width="186" height="180" viewBox="0 0 186 180" fill="none" xmlns="http://www.w3.org/2000/svg">
<circle cx="95.4668" cy="90.5" r="70.5" fill="#437EF4"/>
<circle cx="178.433" cy="27.5" r="7.5" fill="#437EF4"/>
<circle cx="20" cy="10" r="10" fill="#437EF4"/>
<circle cx="10" cy="133" r="5" fill="#437EF4"/>
<circle cx="165.5" cy="160.5" r="2.5" fill="#437EF4"/>
<path fill-rule="evenodd" clip-rule="evenodd" d="M84.8225 65.9165H106.136C114.47 65.9165 120.05 71.7673 120.05 80.4698V100.557C120.05 109.232 114.47 115.083 106.136 115.083H84.8225C76.4888 115.083 70.8838 109.232 70.8838 100.557V80.4698C70.8838 71.7673 76.4888 65.9165 84.8225 65.9165ZM94.0659 97.8503L105.743 86.1732C106.579 85.3373 106.579 83.9853 105.743 83.1248C104.907 82.289 103.53 82.289 102.695 83.1248L92.5417 93.2778L88.2396 88.9757C87.4038 88.1398 86.0271 88.1398 85.1913 88.9757C84.3555 89.8115 84.3555 91.1636 85.1913 92.024L91.0421 97.8503C91.46 98.2682 92.0009 98.4648 92.5417 98.4648C93.1071 98.4648 93.648 98.2682 94.0659 97.8503Z" fill="white"/>
<circle cx="106.5" cy="4.5" r="2.5" fill="#437EF4"/>
<circle cx="62.5" cy="176.5" r="3.5" fill="#437EF4"/>
<circle cx="122" cy="171" r="1" fill="#437EF4"/>
<circle cx="170.5" cy="110.5" r="2.5" fill="#437EF4"/>
<circle cx="1" cy="75" r="1" fill="#437EF4"/>
</svg>
