<svg width="20" height="20" viewBox="0 0 20 20" fill="none" xmlns="http://www.w3.org/2000/svg">
<rect width="20" height="20" rx="4" fill="#0077B5"/>
<path d="M7.69945 14.0526V8.65H5.90531V14.0526H7.69964H7.69945ZM6.80276 7.9125C7.42828 7.9125 7.81771 7.49764 7.81771 6.97919C7.806 6.44893 7.42828 6.04565 6.81465 6.04565C6.2006 6.04565 5.79956 6.44893 5.79956 6.97915C5.79956 7.4976 6.18885 7.91245 6.791 7.91245H6.80262L6.80276 7.9125ZM8.69253 14.0526H10.4865V11.0359C10.4865 10.8746 10.4982 10.7129 10.5456 10.5978C10.6753 10.275 10.9705 9.94093 11.4662 9.94093C12.1152 9.94093 12.375 10.4363 12.375 11.1627V14.0526H14.169V10.9549C14.169 9.29553 13.284 8.52334 12.1036 8.52334C11.1359 8.52334 10.7109 9.06472 10.4747 9.43344H10.4867V8.65019H8.69263C8.71604 9.15701 8.69249 14.0528 8.69249 14.0528L8.69253 14.0526Z" fill="white"/>
</svg>
