<svg width="39" height="33" viewBox="0 0 39 33" fill="none" xmlns="http://www.w3.org/2000/svg">
<path d="M17.4 29.3549L19.7055 29.355L7.64797 29.4233C4.88832 29.439 2.63685 27.2158 2.61756 24.4562L2.50013 7.66012C2.48083 4.89877 4.70371 2.64556 7.46507 2.62745L26.8644 2.50022C29.6634 2.48187 31.9332 4.76458 31.899 7.56335L31.8671 10.1801" stroke="white" stroke-width="5"/>
<path d="M16.9933 29.1784L19.9805 26.485L19.9895 32.1588L13.4652 32.1859L16.9933 29.1784Z" fill="#437EF4"/>
<path d="M31.9933 7.17841L34.9805 4.485L34.9895 10.1588L28.4652 10.1859L31.9933 7.17841Z" fill="#437EF4"/>
<path d="M28.7813 19.5814L29.1953 19.5634H29.2133C29.5373 19.5634 29.7113 19.5994 29.7353 19.6714C29.7473 19.7194 29.9093 21.6634 30.2213 25.5034C30.5213 29.3674 30.6833 31.3114 30.7073 31.3354C30.7193 31.3474 30.7613 31.3654 30.8333 31.3894C30.9773 31.4254 31.3253 31.4434 31.8773 31.4434H32.2373L32.3093 31.4974C32.3453 31.5574 32.3633 31.5994 32.3633 31.6234L32.2013 32.3434C32.1653 32.4154 32.0333 32.4454 31.8053 32.4334C31.7573 32.4334 31.6673 32.4334 31.5353 32.4334C29.7953 32.3854 28.3733 32.3914 27.2693 32.4514H27.0533L26.9993 32.3974C26.9513 32.3494 26.9273 32.3014 26.9273 32.2534C26.9273 32.0614 26.9873 31.8274 27.1073 31.5514C27.1313 31.4794 27.3053 31.4434 27.6293 31.4434C27.9173 31.4194 28.1093 31.4074 28.2053 31.4074C28.4813 31.3594 28.6313 31.3114 28.6553 31.2634C28.6673 31.2514 28.6433 30.8554 28.5833 30.0754C28.5233 29.3794 28.4933 28.9834 28.4933 28.8874C28.4933 28.8634 27.8093 28.8514 26.4413 28.8514H24.3713L23.8313 29.8054C23.4473 30.4534 23.2493 30.8074 23.2373 30.8674C23.1893 30.9874 23.2073 31.0894 23.2913 31.1734C23.4113 31.3174 23.6693 31.4074 24.0653 31.4434C24.2333 31.4434 24.3413 31.4854 24.3893 31.5694L24.4073 31.6234L24.3173 31.9834C24.2693 32.2114 24.2213 32.3494 24.1733 32.3974L24.1193 32.4514H23.9033C22.9073 32.4034 21.9653 32.3914 21.0773 32.4154C20.4653 32.4394 20.1533 32.4514 20.1413 32.4514H20.0153L19.9613 32.3974C19.9133 32.3494 19.8893 32.3074 19.8893 32.2714L20.0513 31.5514C20.0993 31.4794 20.2373 31.4434 20.4653 31.4434C21.3053 31.4074 21.8873 31.1674 22.2113 30.7234L25.4693 25.1434C27.5573 21.5314 28.6253 19.7014 28.6733 19.6534C28.6853 19.6414 28.7213 19.6174 28.7813 19.5814ZM28.2053 25.2514C28.0733 23.5354 28.0073 22.6654 28.0073 22.6414C28.0073 22.5934 27.7433 23.0314 27.2153 23.9554L25.7033 26.5654L24.9653 27.8254L26.6753 27.8434H28.4033C28.4033 27.8554 28.3373 26.9914 28.2053 25.2514Z" fill="white"/>
<circle cx="33.7152" cy="12.7168" r="1.25" fill="#00FFF7"/>
<path d="M33.4652 14.4668V21.4668C33.4652 22.5714 34.3606 23.4668 35.4652 23.4668C36.5697 23.4668 37.4652 24.3622 37.4652 25.4668V25.7525C37.4652 26.8571 36.5697 27.7525 35.4652 27.7525C34.3606 27.7525 33.4652 28.6479 33.4652 29.7525V32.4668" stroke="white" stroke-width="2"/>
<line x1="24.2152" y1="17.7168" x2="29.7152" y2="17.7168" stroke="#00FFF7" stroke-width="1.5" stroke-linecap="round"/>
<line x1="24.2152" y1="19.8047" x2="26.7152" y2="19.8047" stroke="#00FFF7" stroke-width="1.5" stroke-linecap="round"/>
<line x1="24.2152" y1="21.8928" x2="25.7152" y2="21.8928" stroke="#00FFF7" stroke-width="1.5" stroke-linecap="round"/>
</svg>
