<svg width="171" height="38" viewBox="0 0 171 38" fill="none" xmlns="http://www.w3.org/2000/svg">
<path d="M10 3.5H34.5V34.5H10C6.41015 34.5 3.5 31.5898 3.5 28V10C3.5 6.41015 6.41015 3.5 10 3.5Z" stroke="white" stroke-width="7"/>
<path d="M23.9091 22.5114L38 9V38H7L23.9091 22.5114Z" fill="#437EF4"/>
<g opacity="0.3">
<path d="M16.4375 20.5C16.4375 19.4645 17.277 18.625 18.3125 18.625H20.1875V22.375H18.3125C17.277 22.375 16.4375 21.5355 16.4375 20.5Z" fill="white"/>
<path d="M24.5625 16.125C24.5625 15.0895 23.723 14.25 22.6875 14.25H20.8125V18H22.6875C23.723 18 24.5625 17.1605 24.5625 16.125Z" fill="white"/>
</g>
<path d="M16.4375 16.125C16.4375 15.0895 17.277 14.25 18.3125 14.25H20.1875V18H18.3125C17.277 18 16.4375 17.1605 16.4375 16.125Z" fill="white"/>
<path d="M18.3125 23C17.277 23 16.4375 23.8395 16.4375 24.875C16.4375 25.9105 17.277 26.75 18.3125 26.75C19.348 26.75 20.1875 25.9105 20.1875 24.875V23H18.3125Z" fill="white"/>
<path d="M22.6875 22.375C23.723 22.375 24.5625 21.5355 24.5625 20.5C24.5625 19.4645 23.723 18.625 22.6875 18.625C21.652 18.625 20.8125 19.4645 20.8125 20.5C20.8125 21.5355 21.652 22.375 22.6875 22.375Z" fill="white"/>
<rect x="35" y="20" width="3" height="18" fill="white"/>
<circle cx="36.5" cy="17.5" r="1.5" fill="#00FFF7"/>
<path d="M20.9473 38L26.4141 25.3965H29.3496L34.7373 38H31.6963L30.7031 35.5479H24.8672L23.8828 38H20.9473ZM25.8076 33.2627H29.7803L27.8027 28.3672L25.8076 33.2627Z" fill="white"/>
<path d="M58.032 28.288C56.32 28.288 54.768 27.92 53.376 27.184C52 26.432 50.912 25.4 50.112 24.088C49.328 22.76 48.936 21.264 48.936 19.6C48.936 17.936 49.328 16.448 50.112 15.136C50.912 13.808 52 12.776 53.376 12.04C54.768 11.288 56.328 10.912 58.056 10.912C59.512 10.912 60.824 11.168 61.992 11.68C63.176 12.192 64.168 12.928 64.968 13.888L62.472 16.192C61.336 14.88 59.928 14.224 58.248 14.224C57.208 14.224 56.28 14.456 55.464 14.92C54.648 15.368 54.008 16 53.544 16.816C53.096 17.632 52.872 18.56 52.872 19.6C52.872 20.64 53.096 21.568 53.544 22.384C54.008 23.2 54.648 23.84 55.464 24.304C56.28 24.752 57.208 24.976 58.248 24.976C59.928 24.976 61.336 24.312 62.472 22.984L64.968 25.288C64.168 26.264 63.176 27.008 61.992 27.52C60.808 28.032 59.488 28.288 58.032 28.288ZM74.9616 14.896C76.1616 14.896 77.2496 15.176 78.2256 15.736C79.2176 16.28 79.9936 17.056 80.5536 18.064C81.1136 19.056 81.3936 20.216 81.3936 21.544C81.3936 22.872 81.1136 24.04 80.5536 25.048C79.9936 26.04 79.2176 26.816 78.2256 27.376C77.2496 27.92 76.1616 28.192 74.9616 28.192C73.3136 28.192 72.0176 27.672 71.0736 26.632V32.656H67.3296V15.088H70.9056V16.576C71.8336 15.456 73.1856 14.896 74.9616 14.896ZM74.3136 25.12C75.2736 25.12 76.0576 24.8 76.6656 24.16C77.2896 23.504 77.6016 22.632 77.6016 21.544C77.6016 20.456 77.2896 19.592 76.6656 18.952C76.0576 18.296 75.2736 17.968 74.3136 17.968C73.3536 17.968 72.5616 18.296 71.9376 18.952C71.3296 19.592 71.0256 20.456 71.0256 21.544C71.0256 22.632 71.3296 23.504 71.9376 24.16C72.5616 24.8 73.3536 25.12 74.3136 25.12ZM84.1639 11.2H91.7959C93.6199 11.2 95.2279 11.552 96.6199 12.256C98.0279 12.944 99.1159 13.92 99.8839 15.184C100.668 16.448 101.06 17.92 101.06 19.6C101.06 21.28 100.668 22.752 99.8839 24.016C99.1159 25.28 98.0279 26.264 96.6199 26.968C95.2279 27.656 93.6199 28 91.7959 28H84.1639V11.2ZM91.6039 24.808C93.2839 24.808 94.6199 24.344 95.6119 23.416C96.6199 22.472 97.1239 21.2 97.1239 19.6C97.1239 18 96.6199 16.736 95.6119 15.808C94.6199 14.864 93.2839 14.392 91.6039 14.392H88.0519V24.808H91.6039ZM108.936 14.896C110.936 14.896 112.472 15.376 113.544 16.336C114.616 17.28 115.152 18.712 115.152 20.632V28H111.648V26.392C110.944 27.592 109.632 28.192 107.712 28.192C106.72 28.192 105.856 28.024 105.12 27.688C104.4 27.352 103.848 26.888 103.464 26.296C103.08 25.704 102.888 25.032 102.888 24.28C102.888 23.08 103.336 22.136 104.232 21.448C105.144 20.76 106.544 20.416 108.432 20.416H111.408C111.408 19.6 111.16 18.976 110.664 18.544C110.168 18.096 109.424 17.872 108.432 17.872C107.744 17.872 107.064 17.984 106.392 18.208C105.736 18.416 105.176 18.704 104.712 19.072L103.368 16.456C104.072 15.96 104.912 15.576 105.888 15.304C106.88 15.032 107.896 14.896 108.936 14.896ZM108.648 25.672C109.288 25.672 109.856 25.528 110.352 25.24C110.848 24.936 111.2 24.496 111.408 23.92V22.6H108.84C107.304 22.6 106.536 23.104 106.536 24.112C106.536 24.592 106.72 24.976 107.088 25.264C107.472 25.536 107.992 25.672 108.648 25.672ZM122.885 28.192C121.813 28.192 120.765 28.064 119.741 27.808C118.717 27.536 117.901 27.2 117.293 26.8L118.541 24.112C119.117 24.48 119.813 24.784 120.629 25.024C121.445 25.248 122.245 25.36 123.029 25.36C124.613 25.36 125.405 24.968 125.405 24.184C125.405 23.816 125.189 23.552 124.757 23.392C124.325 23.232 123.661 23.096 122.765 22.984C121.709 22.824 120.837 22.64 120.149 22.432C119.461 22.224 118.861 21.856 118.349 21.328C117.853 20.8 117.604 20.048 117.604 19.072C117.604 18.256 117.837 17.536 118.301 16.912C118.781 16.272 119.469 15.776 120.365 15.424C121.277 15.072 122.349 14.896 123.581 14.896C124.493 14.896 125.397 15 126.293 15.208C127.205 15.4 127.957 15.672 128.549 16.024L127.301 18.688C126.165 18.048 124.925 17.728 123.581 17.728C122.781 17.728 122.181 17.84 121.781 18.064C121.381 18.288 121.181 18.576 121.181 18.928C121.181 19.328 121.397 19.608 121.829 19.768C122.261 19.928 122.949 20.08 123.893 20.224C124.949 20.4 125.813 20.592 126.485 20.8C127.157 20.992 127.741 21.352 128.237 21.88C128.733 22.408 128.981 23.144 128.981 24.088C128.981 24.888 128.741 25.6 128.261 26.224C127.781 26.848 127.077 27.336 126.149 27.688C125.237 28.024 124.149 28.192 122.885 28.192ZM139.139 14.896C140.739 14.896 142.027 15.376 143.003 16.336C143.995 17.296 144.491 18.72 144.491 20.608V28H140.747V21.184C140.747 20.16 140.523 19.4 140.075 18.904C139.627 18.392 138.979 18.136 138.131 18.136C137.187 18.136 136.435 18.432 135.875 19.024C135.315 19.6 135.035 20.464 135.035 21.616V28H131.291V10.192H135.035V16.432C135.531 15.936 136.131 15.56 136.835 15.304C137.539 15.032 138.307 14.896 139.139 14.896ZM159.212 24.4H151.412L149.924 28H145.94L153.428 11.2H157.268L164.78 28H160.7L159.212 24.4ZM157.988 21.448L155.324 15.016L152.66 21.448H157.988ZM166.523 11.2H170.411V28H166.523V11.2Z" fill="white"/>
</svg>
