<svg width="24" height="26" viewBox="0 0 24 26" fill="none" xmlns="http://www.w3.org/2000/svg">
<rect width="24" height="25.8158" rx="12" fill="#2563EB"/>
<g clip-path="url(#clip0_1686_8940)">
<mask id="mask0_1686_8940" style="mask-type:alpha" maskUnits="userSpaceOnUse" x="7" y="7" width="10" height="10">
<path d="M16.6768 10.3627L13.679 9.92698L12.3389 7.21017C12.3023 7.13579 12.2421 7.07557 12.1677 7.03897C11.9812 6.94687 11.7545 7.02362 11.6612 7.21017L10.3211 9.92698L7.32326 10.3627C7.24061 10.3745 7.16504 10.4134 7.10719 10.4725C7.03725 10.5444 6.9987 10.6411 7.00003 10.7414C7.00136 10.8417 7.04245 10.9373 7.11427 11.0073L9.28324 13.122L8.77081 16.108C8.75879 16.1775 8.76648 16.2489 8.793 16.3142C8.81952 16.3795 8.8638 16.4361 8.92084 16.4775C8.97788 16.519 9.04538 16.5436 9.11569 16.5486C9.18601 16.5536 9.25632 16.5388 9.31866 16.5059L12.0001 15.0961L14.6814 16.5059C14.7546 16.5449 14.8397 16.5578 14.9211 16.5437C15.1266 16.5083 15.2647 16.3134 15.2293 16.108L14.7169 13.122L16.8858 11.0073C16.9449 10.9495 16.9838 10.8739 16.9956 10.7913C17.0275 10.5846 16.8835 10.3934 16.6768 10.3627Z" fill="#006FFD"/>
</mask>
<g mask="url(#mask0_1686_8940)">
<rect x="7" y="7" width="10" height="10" fill="white"/>
</g>
</g>
<defs>
<clipPath id="clip0_1686_8940">
<rect width="10" height="10" fill="white" transform="translate(7 7)"/>
</clipPath>
</defs>
</svg>
