<svg width="18" height="20" viewBox="0 0 18 20" fill="none" xmlns="http://www.w3.org/2000/svg">
<path d="M0 19C0 19.5523 0.447715 20 1 20C1.55228 20 2 19.5523 2 19H1H0ZM8.8584 13.0608C9.40512 13.139 9.91172 12.7592 9.98992 12.2125C10.0681 11.6658 9.68832 11.1592 9.1416 11.081L9 12.0709L8.8584 13.0608ZM14.29 15.2929C13.8994 15.6834 13.8994 16.3166 14.29 16.7071C14.6805 17.0976 15.3137 17.0976 15.7042 16.7071L14.9971 16L14.29 15.2929ZM12.0916 12.7507C11.954 13.2856 12.2759 13.8308 12.8108 13.9684C13.3457 14.1061 13.8908 13.7841 14.0285 13.2493L13.0601 13L12.0916 12.7507ZM14.9971 18C14.4448 18 13.9971 18.4477 13.9971 19C13.9971 19.5523 14.4448 20 14.9971 20V19V18ZM15.0071 20C15.5594 20 16.0071 19.5523 16.0071 19C16.0071 18.4477 15.5594 18 15.0071 18V19V20ZM12 5H11C11 6.65685 9.65685 8 8 8V9V10C10.7614 10 13 7.76142 13 5H12ZM8 9V8C6.34315 8 5 6.65685 5 5H4H3C3 7.76142 5.23858 10 8 10V9ZM4 5H5C5 3.34315 6.34315 2 8 2V1V0C5.23858 0 3 2.23858 3 5H4ZM8 1V2C9.65685 2 11 3.34315 11 5H12H13C13 2.23858 10.7614 0 8 0V1ZM1 19H2C2 15.6863 4.68629 13 8 13V12V11C3.58172 11 0 14.5817 0 19H1ZM8 12V13C8.292 13 8.57856 13.0208 8.8584 13.0608L9 12.0709L9.1416 11.081C8.76824 11.0276 8.38704 11 8 11V12ZM16.997 13.5H15.997C15.997 13.6732 15.9516 13.8053 15.6776 14.0697C15.5239 14.218 15.3429 14.3653 15.0919 14.574C14.8536 14.7723 14.5741 15.0087 14.29 15.2929L14.9971 16L15.7042 16.7071C15.92 16.4913 16.1405 16.3033 16.3709 16.1116C16.5887 15.9305 16.8452 15.7223 17.0665 15.5087C17.5426 15.0493 17.997 14.4314 17.997 13.5H16.997ZM14.997 11.5V12.5C15.5493 12.5 15.997 12.9477 15.997 13.5H16.997H17.997C17.997 11.8431 16.6539 10.5 14.997 10.5V11.5ZM13.0601 13L14.0285 13.2493C14.1396 12.8177 14.5325 12.5 14.997 12.5V11.5V10.5C13.5978 10.5 12.4246 11.457 12.0916 12.7507L13.0601 13ZM14.9971 19V20H15.0071V19V18H14.9971V19Z" fill="#A8AAAD"/>
</svg>
