<svg width="118" height="111" viewBox="0 0 118 111" fill="none" xmlns="http://www.w3.org/2000/svg">
<rect width="118" height="110.226" rx="12" fill="#437EF4"/>
<path d="M55.6115 84.1138L61.109 84.1139L30.4376 84.2878C24.9183 84.3191 20.4154 79.8728 20.3768 74.3536L20.0699 30.461C20.0313 24.9383 24.4771 20.4319 29.9998 20.3956L80.1388 20.0668C85.7367 20.0301 90.2764 24.5955 90.208 30.1931L90.1078 38.3921" stroke="white" stroke-width="12"/>
<path d="M90.6051 32.5212L96.3277 27.1265L96.3277 38.5431L83.8468 38.5434L90.6051 32.5212Z" fill="#437EF4"/>
<path d="M55.6169 83.8196L61.1086 78.1255L61.1395 90.1299L49.1304 90.1774L55.6169 83.8196Z" fill="#437EF4"/>
<path d="M79.958 89.792H68.954L67.19 95H59.672L70.34 65.516H78.656L89.324 95H81.722L79.958 89.792ZM78.11 84.248L74.456 73.454L70.844 84.248H78.11Z" fill="white"/>
<circle cx="91.609" cy="42.507" r="2.5" fill="#00FFF7"/>
<path d="M92 48V66C92 67.6569 93.3431 69 95 69C96.6569 69 98 70.3431 98 72V74V76C98 77.6569 96.6569 79 95 79C93.3431 79 92 80.3431 92 82V90" stroke="white" stroke-width="4"/>
<line x1="74.109" y1="57.007" x2="82.109" y2="57.007" stroke="#00FFF7" stroke-width="2" stroke-linecap="round"/>
<line x1="74.109" y1="60.007" x2="78.109" y2="60.007" stroke="#00FFF7" stroke-width="2" stroke-linecap="round"/>
<line x1="74.109" y1="63.007" x2="76.109" y2="63.007" stroke="#00FFF7" stroke-width="2" stroke-linecap="round"/>
</svg>
