<svg width="24" height="24" viewBox="0 0 24 24" fill="none" xmlns="http://www.w3.org/2000/svg">
<path d="M12.5 10.5H11.5V11.5V12.5C12.6046 12.5 13.5 11.6046 13.5 10.5H12.5ZM11.5 11.5V10.5H10.5H9.5C9.5 11.6046 10.3954 12.5 11.5 12.5V11.5ZM10.5 10.5H11.5V9.5V8.5C10.3954 8.5 9.5 9.3954 9.5 10.5H10.5ZM11.5 9.5V10.5H12.5H13.5C13.5 9.3954 12.6046 8.5 11.5 8.5V9.5ZM11.5 10.5V11.5H11.51V10.5V9.5H11.5V10.5ZM15.0355 14.0357L14.3284 13.3286C12.2577 15.3993 10.0344 16.8568 8.14893 17.5639C6.17062 18.3057 4.95753 18.0998 4.42893 17.5713L3.72183 18.2784L3.01472 18.9855C4.43883 20.4096 6.73469 20.2302 8.85113 19.4365C11.0604 18.608 13.5176 16.9679 15.7427 14.7428L15.0355 14.0357ZM3.72183 18.2784L4.42893 17.5713C3.90042 17.0427 3.69447 15.8296 4.43633 13.8513C5.14339 11.9658 6.60086 9.74249 8.67157 7.67177L7.96447 6.96466L7.25736 6.25756C5.03231 8.48262 3.39215 10.9398 2.56367 13.1491C1.77 15.2655 1.5906 17.5614 3.01472 18.9855L3.72183 18.2784ZM7.96447 6.96466L8.67157 7.67177C10.7423 5.60106 12.9657 4.14358 14.8511 3.43653C16.8295 2.69466 18.0426 2.90061 18.5711 3.42913L19.2782 2.72202L19.9853 2.01491C18.5612 0.590812 16.2653 0.770199 14.1489 1.56387C11.9396 2.39235 9.48237 4.0325 7.25736 6.25756L7.96447 6.96466ZM19.2782 2.72202L18.5711 3.42913C19.0996 3.95764 19.3056 5.17076 18.5637 7.14907C17.8566 9.03453 16.3991 11.2579 14.3284 13.3286L15.0355 14.0357L15.7427 14.7428C17.9677 12.5178 19.6079 10.0606 20.4363 7.85132C21.23 5.73488 21.4094 3.43902 19.9853 2.01491L19.2782 2.72202ZM15.0355 6.96466L14.3284 7.67177C16.3991 9.74249 17.8566 11.9658 18.5637 13.8513C19.3056 15.8296 19.0996 17.0427 18.5711 17.5713L19.2782 18.2784L19.9853 18.9855C21.4094 17.5614 21.23 15.2655 20.4363 13.1491C19.6079 10.9398 17.9677 8.48262 15.7427 6.25756L15.0355 6.96466ZM19.2782 18.2784L18.5711 17.5713C18.0426 18.0998 16.8295 18.3057 14.8511 17.5639C12.9657 16.8568 10.7423 15.3993 8.67157 13.3286L7.96447 14.0357L7.25736 14.7428C9.48237 16.9679 11.9396 18.608 14.1489 19.4365C16.2653 20.2302 18.5612 20.4096 19.9853 18.9855L19.2782 18.2784ZM7.96447 14.0357L8.67157 13.3286C6.60086 11.2579 5.14339 9.03453 4.43633 7.14907C3.69447 5.17076 3.90042 3.95764 4.42893 3.42913L3.72183 2.72202L3.01472 2.01491C1.5906 3.43902 1.77 5.73488 2.56367 7.85132C3.39215 10.0606 5.03231 12.5178 7.25736 14.7428L7.96447 14.0357ZM3.72183 2.72202L4.42893 3.42913C4.95747 2.90061 6.17062 2.69466 8.14893 3.43653C10.0344 4.14358 12.2577 5.60106 14.3284 7.67177L15.0355 6.96466L15.7427 6.25756C13.5176 4.0325 11.0604 2.39235 8.85113 1.56387C6.73469 0.770199 4.43883 0.590812 3.01472 2.01491L3.72183 2.72202Z" fill="currentColor"/>
</svg>
