<svg width="55" height="52" viewBox="0 0 55 52" fill="none" xmlns="http://www.w3.org/2000/svg">
<path d="M28.5 12.0002H27.5V13.0002V14.0002C28.6046 14.0002 29.5 13.1048 29.5 12.0002H28.5ZM27.5 13.0002V12.0002H26.5H25.5C25.5 13.1048 26.3954 14.0002 27.5 14.0002V13.0002ZM26.5 12.0002H27.5V11.0002V10.0002C26.3954 10.0002 25.5 10.8956 25.5 12.0002H26.5ZM27.5 11.0002V12.0002H28.5H29.5C29.5 10.8956 28.6046 10.0002 27.5 10.0002V11.0002ZM27.5 12.0002V13.0002H27.51V12.0002V11.0002H27.5V12.0002ZM31.0355 15.5357L30.3284 14.8286C28.2577 16.8993 26.0344 18.3568 24.1489 19.0639C22.1706 19.8057 20.9575 19.5998 20.4289 19.0713L19.7218 19.7784L19.0147 20.4855C20.4388 21.9096 22.7347 21.7302 24.8511 20.9365C27.0604 20.108 29.5176 18.4679 31.7427 16.2428L31.0355 15.5357ZM19.7218 19.7784L20.4289 19.0713C19.9004 18.5427 19.6945 17.3296 20.4363 15.3513C21.1434 13.4658 22.6009 11.2425 24.6716 9.17177L23.9645 8.46466L23.2574 7.75756C21.0323 9.98262 19.3922 12.4398 18.5637 14.6491C17.77 16.7655 17.5906 19.0614 19.0147 20.4855L19.7218 19.7784ZM23.9645 8.46466L24.6716 9.17177C26.7423 7.10106 28.9657 5.64358 30.8511 4.93653C32.8295 4.19466 34.0426 4.40061 34.5711 4.92913L35.2782 4.22202L35.9853 3.51491C34.5612 2.09081 32.2653 2.2702 30.1489 3.06387C27.9396 3.89235 25.4824 5.5325 23.2574 7.75756L23.9645 8.46466ZM35.2782 4.22202L34.5711 4.92913C35.0996 5.45764 35.3056 6.67076 34.5637 8.64907C33.8566 10.5345 32.3991 12.7579 30.3284 14.8286L31.0355 15.5357L31.7427 16.2428C33.9677 14.0178 35.6079 11.5606 36.4363 9.35132C37.23 7.23488 37.4094 4.93902 35.9853 3.51491L35.2782 4.22202ZM31.0355 8.46466L30.3284 9.17177C32.3991 11.2425 33.8566 13.4658 34.5637 15.3513C35.3056 17.3296 35.0996 18.5427 34.5711 19.0713L35.2782 19.7784L35.9853 20.4855C37.4094 19.0614 37.23 16.7655 36.4363 14.6491C35.6079 12.4398 33.9677 9.98262 31.7427 7.75756L31.0355 8.46466ZM35.2782 19.7784L34.5711 19.0713C34.0426 19.5998 32.8295 19.8057 30.8511 19.0639C28.9657 18.3568 26.7423 16.8993 24.6716 14.8286L23.9645 15.5357L23.2574 16.2428C25.4824 18.4679 27.9396 20.108 30.1489 20.9365C32.2653 21.7302 34.5612 21.9096 35.9853 20.4855L35.2782 19.7784ZM23.9645 15.5357L24.6716 14.8286C22.6009 12.7579 21.1434 10.5345 20.4363 8.64907C19.6945 6.67076 19.9004 5.45764 20.4289 4.92913L19.7218 4.22202L19.0147 3.51491C17.5906 4.93902 17.77 7.23488 18.5637 9.35132C19.3922 11.5606 21.0323 14.0178 23.2574 16.2428L23.9645 15.5357ZM19.7218 4.22202L20.4289 4.92913C20.9575 4.40061 22.1706 4.19466 24.1489 4.93653C26.0344 5.64358 28.2577 7.10106 30.3284 9.17177L31.0355 8.46466L31.7427 7.75756C29.5176 5.5325 27.0604 3.89235 24.8511 3.06387C22.7347 2.2702 20.4388 2.09081 19.0147 3.51491L19.7218 4.22202Z" fill="white"/>
<path d="M5.928 45.296H2.436L1.836 47H0.408L3.396 38.648H4.98L7.968 47H6.528L5.928 45.296ZM5.544 44.18L4.188 40.304L2.82 44.18H5.544ZM10.6352 38.66V47H9.26719V38.66H10.6352ZM15.0924 42.812C15.0924 41.996 15.2804 41.264 15.6564 40.616C16.0404 39.968 16.5564 39.464 17.2044 39.104C17.8604 38.736 18.5764 38.552 19.3524 38.552C20.2404 38.552 21.0284 38.772 21.7164 39.212C22.4124 39.644 22.9164 40.26 23.2284 41.06H21.5844C21.3684 40.62 21.0684 40.292 20.6844 40.076C20.3004 39.86 19.8564 39.752 19.3524 39.752C18.8004 39.752 18.3084 39.876 17.8764 40.124C17.4444 40.372 17.1044 40.728 16.8564 41.192C16.6164 41.656 16.4964 42.196 16.4964 42.812C16.4964 43.428 16.6164 43.968 16.8564 44.432C17.1044 44.896 17.4444 45.256 17.8764 45.512C18.3084 45.76 18.8004 45.884 19.3524 45.884C19.8564 45.884 20.3004 45.776 20.6844 45.56C21.0684 45.344 21.3684 45.016 21.5844 44.576H23.2284C22.9164 45.376 22.4124 45.992 21.7164 46.424C21.0284 46.856 20.2404 47.072 19.3524 47.072C18.5684 47.072 17.8524 46.892 17.2044 46.532C16.5564 46.164 16.0404 45.656 15.6564 45.008C15.2804 44.36 15.0924 43.628 15.0924 42.812ZM27.6977 47.108C27.0737 47.108 26.5097 46.968 26.0057 46.688C25.5017 46.4 25.1057 46 24.8177 45.488C24.5297 44.968 24.3857 44.368 24.3857 43.688C24.3857 43.016 24.5337 42.42 24.8297 41.9C25.1257 41.38 25.5297 40.98 26.0417 40.7C26.5537 40.42 27.1257 40.28 27.7577 40.28C28.3897 40.28 28.9617 40.42 29.4737 40.7C29.9857 40.98 30.3897 41.38 30.6857 41.9C30.9817 42.42 31.1297 43.016 31.1297 43.688C31.1297 44.36 30.9777 44.956 30.6737 45.476C30.3697 45.996 29.9537 46.4 29.4257 46.688C28.9057 46.968 28.3297 47.108 27.6977 47.108ZM27.6977 45.92C28.0497 45.92 28.3777 45.836 28.6817 45.668C28.9937 45.5 29.2457 45.248 29.4377 44.912C29.6297 44.576 29.7257 44.168 29.7257 43.688C29.7257 43.208 29.6337 42.804 29.4497 42.476C29.2657 42.14 29.0217 41.888 28.7177 41.72C28.4137 41.552 28.0857 41.468 27.7337 41.468C27.3817 41.468 27.0537 41.552 26.7497 41.72C26.4537 41.888 26.2177 42.14 26.0417 42.476C25.8657 42.804 25.7777 43.208 25.7777 43.688C25.7777 44.4 25.9577 44.952 26.3177 45.344C26.6857 45.728 27.1457 45.92 27.6977 45.92ZM32.026 43.664C32.026 43 32.162 42.412 32.434 41.9C32.714 41.388 33.09 40.992 33.562 40.712C34.042 40.424 34.57 40.28 35.146 40.28C35.666 40.28 36.118 40.384 36.502 40.592C36.894 40.792 37.206 41.044 37.438 41.348V40.388H38.818V47H37.438V46.016C37.206 46.328 36.89 46.588 36.49 46.796C36.09 47.004 35.634 47.108 35.122 47.108C34.554 47.108 34.034 46.964 33.562 46.676C33.09 46.38 32.714 45.972 32.434 45.452C32.162 44.924 32.026 44.328 32.026 43.664ZM37.438 43.688C37.438 43.232 37.342 42.836 37.15 42.5C36.966 42.164 36.722 41.908 36.418 41.732C36.114 41.556 35.786 41.468 35.434 41.468C35.082 41.468 34.754 41.556 34.45 41.732C34.146 41.9 33.898 42.152 33.706 42.488C33.522 42.816 33.43 43.208 33.43 43.664C33.43 44.12 33.522 44.52 33.706 44.864C33.898 45.208 34.146 45.472 34.45 45.656C34.762 45.832 35.09 45.92 35.434 45.92C35.786 45.92 36.114 45.832 36.418 45.656C36.722 45.48 36.966 45.224 37.15 44.888C37.342 44.544 37.438 44.144 37.438 43.688ZM40.1588 43.688C40.1588 43.008 40.2948 42.412 40.5668 41.9C40.8468 41.38 41.2308 40.98 41.7188 40.7C42.2068 40.42 42.7668 40.28 43.3988 40.28C44.1988 40.28 44.8588 40.472 45.3788 40.856C45.9068 41.232 46.2628 41.772 46.4468 42.476H44.9708C44.8508 42.148 44.6588 41.892 44.3948 41.708C44.1308 41.524 43.7988 41.432 43.3988 41.432C42.8388 41.432 42.3908 41.632 42.0548 42.032C41.7268 42.424 41.5628 42.976 41.5628 43.688C41.5628 44.4 41.7268 44.956 42.0548 45.356C42.3908 45.756 42.8388 45.956 43.3988 45.956C44.1908 45.956 44.7148 45.608 44.9708 44.912H46.4468C46.2548 45.584 45.8948 46.12 45.3668 46.52C44.8388 46.912 44.1828 47.108 43.3988 47.108C42.7668 47.108 42.2068 46.968 41.7188 46.688C41.2308 46.4 40.8468 46 40.5668 45.488C40.2948 44.968 40.1588 44.368 40.1588 43.688ZM51.2302 40.28C51.7342 40.28 52.1822 40.388 52.5742 40.604C52.9742 40.82 53.2862 41.14 53.5102 41.564C53.7422 41.988 53.8582 42.5 53.8582 43.1V47H52.5022V43.304C52.5022 42.712 52.3542 42.26 52.0582 41.948C51.7622 41.628 51.3582 41.468 50.8462 41.468C50.3342 41.468 49.9262 41.628 49.6222 41.948C49.3262 42.26 49.1782 42.712 49.1782 43.304V47H47.8102V38.12H49.1782V41.156C49.4102 40.876 49.7022 40.66 50.0542 40.508C50.4142 40.356 50.8062 40.28 51.2302 40.28Z" fill="white"/>
</svg>
