<svg width="68" height="52" viewBox="0 0 68 52" fill="none" xmlns="http://www.w3.org/2000/svg">
<path fill-rule="evenodd" clip-rule="evenodd" d="M35.3068 2.24116C34.451 2.00946 33.5491 2.00946 32.6933 2.24116C31.72 2.50468 30.8661 3.16957 29.6271 4.1342L26.7505 6.37158C25.9462 6.99674 25.3897 7.42921 24.9801 7.98303C24.6185 8.472 24.3491 9.02285 24.1851 9.60852C23.9994 10.2719 23.9997 10.9766 24 11.9953L24.0001 14.6427C24 15.7265 24 16.6007 24.0579 17.3086C24.1174 18.0374 24.2432 18.6776 24.545 19.2699C25.0244 20.2107 25.7893 20.9756 26.7301 21.455C27.3224 21.7568 27.9626 21.8826 28.6914 21.9421C29.3993 22 30.2734 21.9999 31.3571 21.9999H36.6429C37.7266 21.9999 38.6008 22 39.3087 21.9421C40.0375 21.8826 40.6777 21.7568 41.27 21.455C42.2108 20.9756 42.9757 20.2107 43.4551 19.2699C43.7569 18.6776 43.8827 18.0374 43.9422 17.3086C44.0001 16.6007 44.0001 15.7266 44.0001 14.6429L44.0001 11.9953C44.0004 10.9766 44.0007 10.2719 43.815 9.60852C43.6511 9.02285 43.3816 8.472 43.02 7.98303C42.6104 7.42922 42.054 6.99674 41.2496 6.37159L38.3731 4.13421C37.1341 3.16958 36.2801 2.50468 35.3068 2.24116ZM31 16C30.4477 16 30 16.4477 30 17C30 17.5523 30.4477 18 31 18H37C37.5523 18 38 17.5523 38 17C38 16.4477 37.5523 16 37 16H31Z" fill="white"/>
<path d="M23.56 38.66V47H22.192V43.352H18.268V47H16.9V38.66H18.268V42.236H22.192V38.66H23.56ZM28.2289 47.108C27.6049 47.108 27.0409 46.968 26.5369 46.688C26.0329 46.4 25.6369 46 25.3489 45.488C25.0609 44.968 24.9169 44.368 24.9169 43.688C24.9169 43.016 25.0649 42.42 25.3609 41.9C25.6569 41.38 26.0609 40.98 26.5729 40.7C27.0849 40.42 27.6569 40.28 28.2889 40.28C28.9209 40.28 29.4929 40.42 30.0049 40.7C30.5169 40.98 30.9209 41.38 31.2169 41.9C31.5129 42.42 31.6609 43.016 31.6609 43.688C31.6609 44.36 31.5089 44.956 31.2049 45.476C30.9009 45.996 30.4849 46.4 29.9569 46.688C29.4369 46.968 28.8609 47.108 28.2289 47.108ZM28.2289 45.92C28.5809 45.92 28.9089 45.836 29.2129 45.668C29.5249 45.5 29.7769 45.248 29.9689 44.912C30.1609 44.576 30.2569 44.168 30.2569 43.688C30.2569 43.208 30.1649 42.804 29.9809 42.476C29.7969 42.14 29.5529 41.888 29.2489 41.72C28.9449 41.552 28.6169 41.468 28.2649 41.468C27.9129 41.468 27.5849 41.552 27.2809 41.72C26.9849 41.888 26.7489 42.14 26.5729 42.476C26.3969 42.804 26.3089 43.208 26.3089 43.688C26.3089 44.4 26.4889 44.952 26.8489 45.344C27.2169 45.728 27.6769 45.92 28.2289 45.92ZM41.0173 40.28C41.5373 40.28 42.0013 40.388 42.4093 40.604C42.8253 40.82 43.1493 41.14 43.3813 41.564C43.6213 41.988 43.7413 42.5 43.7413 43.1V47H42.3853V43.304C42.3853 42.712 42.2373 42.26 41.9413 41.948C41.6453 41.628 41.2413 41.468 40.7293 41.468C40.2173 41.468 39.8093 41.628 39.5053 41.948C39.2093 42.26 39.0613 42.712 39.0613 43.304V47H37.7053V43.304C37.7053 42.712 37.5573 42.26 37.2613 41.948C36.9653 41.628 36.5613 41.468 36.0493 41.468C35.5373 41.468 35.1293 41.628 34.8253 41.948C34.5293 42.26 34.3813 42.712 34.3813 43.304V47H33.0133V40.388H34.3813V41.144C34.6053 40.872 34.8893 40.66 35.2333 40.508C35.5773 40.356 35.9453 40.28 36.3373 40.28C36.8653 40.28 37.3373 40.392 37.7533 40.616C38.1693 40.84 38.4893 41.164 38.7133 41.588C38.9133 41.188 39.2253 40.872 39.6493 40.64C40.0733 40.4 40.5293 40.28 41.0173 40.28ZM51.542 43.532C51.542 43.78 51.526 44.004 51.494 44.204H46.442C46.482 44.732 46.678 45.156 47.03 45.476C47.382 45.796 47.814 45.956 48.326 45.956C49.062 45.956 49.582 45.648 49.886 45.032H51.362C51.162 45.64 50.798 46.14 50.27 46.532C49.75 46.916 49.102 47.108 48.326 47.108C47.694 47.108 47.126 46.968 46.622 46.688C46.126 46.4 45.734 46 45.446 45.488C45.166 44.968 45.026 44.368 45.026 43.688C45.026 43.008 45.162 42.412 45.434 41.9C45.714 41.38 46.102 40.98 46.598 40.7C47.102 40.42 47.678 40.28 48.326 40.28C48.95 40.28 49.506 40.416 49.994 40.688C50.482 40.96 50.862 41.344 51.134 41.84C51.406 42.328 51.542 42.892 51.542 43.532ZM50.114 43.1C50.106 42.596 49.926 42.192 49.574 41.888C49.222 41.584 48.786 41.432 48.266 41.432C47.794 41.432 47.39 41.584 47.054 41.888C46.718 42.184 46.518 42.588 46.454 43.1H50.114Z" fill="white"/>
</svg>
