<svg width="68" height="52" viewBox="0 0 68 52" fill="none" xmlns="http://www.w3.org/2000/svg">
<path d="M25.0275 10.022L28.6852 12.9482C29.1725 13.338 29.4162 13.5329 29.6875 13.6715C29.9282 13.7945 30.1844 13.8844 30.4492 13.9387C30.7477 14 31.0597 14 31.6837 14H36.3163C36.9403 14 37.2523 14 37.5508 13.9387C37.8156 13.8844 38.0718 13.7945 38.3125 13.6715C38.5838 13.5329 38.8275 13.338 39.3148 12.9482L42.9725 10.022M25.0275 10.022C25 10.4895 25 11.0642 25 11.8V16.2C25 17.8802 25 18.7202 25.327 19.362C25.6146 19.9265 26.0735 20.3854 26.638 20.673C27.2798 21 28.1198 21 29.8 21H38.2C39.8802 21 40.7202 21 41.362 20.673C41.9265 20.3854 42.3854 19.9265 42.673 19.362C43 18.7202 43 17.8802 43 16.2V11.8C43 11.0642 43 10.4895 42.9725 10.022M25.0275 10.022C25.0627 9.42205 25.1432 8.99871 25.327 8.63803C25.6146 8.07354 26.0735 7.6146 26.638 7.32698C27.2798 7 28.1198 7 29.8 7H30M42.9725 10.022C42.9373 9.42205 42.8568 8.99871 42.673 8.63803C42.3854 8.07354 41.9265 7.6146 41.362 7.32698C40.7202 7 39.8802 7 38.2 7H38M30 7V6C30 4.34315 31.3431 3 33 3H35C36.6569 3 38 4.34315 38 6V7M30 7H38" stroke="white" stroke-width="2" stroke-linecap="round" stroke-linejoin="round"/>
<path d="M24.948 38.66V44.672C24.948 45.416 24.72 46.004 24.264 46.436C23.816 46.868 23.224 47.084 22.488 47.084C21.752 47.084 21.156 46.868 20.7 46.436C20.252 46.004 20.028 45.416 20.028 44.672H21.408C21.416 45.04 21.508 45.332 21.684 45.548C21.868 45.764 22.136 45.872 22.488 45.872C22.84 45.872 23.108 45.764 23.292 45.548C23.476 45.324 23.568 45.032 23.568 44.672V38.66H24.948ZM30.0414 47.108C29.4174 47.108 28.8534 46.968 28.3494 46.688C27.8454 46.4 27.4494 46 27.1614 45.488C26.8734 44.968 26.7294 44.368 26.7294 43.688C26.7294 43.016 26.8774 42.42 27.1734 41.9C27.4694 41.38 27.8734 40.98 28.3854 40.7C28.8974 40.42 29.4694 40.28 30.1014 40.28C30.7334 40.28 31.3054 40.42 31.8174 40.7C32.3294 40.98 32.7334 41.38 33.0294 41.9C33.3254 42.42 33.4734 43.016 33.4734 43.688C33.4734 44.36 33.3214 44.956 33.0174 45.476C32.7134 45.996 32.2974 46.4 31.7694 46.688C31.2494 46.968 30.6734 47.108 30.0414 47.108ZM30.0414 45.92C30.3934 45.92 30.7214 45.836 31.0254 45.668C31.3374 45.5 31.5894 45.248 31.7814 44.912C31.9734 44.576 32.0694 44.168 32.0694 43.688C32.0694 43.208 31.9774 42.804 31.7934 42.476C31.6094 42.14 31.3654 41.888 31.0614 41.72C30.7574 41.552 30.4294 41.468 30.0774 41.468C29.7254 41.468 29.3974 41.552 29.0934 41.72C28.7974 41.888 28.5614 42.14 28.3854 42.476C28.2094 42.804 28.1214 43.208 28.1214 43.688C28.1214 44.4 28.3014 44.952 28.6614 45.344C29.0294 45.728 29.4894 45.92 30.0414 45.92ZM36.1938 41.372C36.4258 41.052 36.7418 40.792 37.1418 40.592C37.5498 40.384 38.0018 40.28 38.4978 40.28C39.0818 40.28 39.6098 40.42 40.0818 40.7C40.5538 40.98 40.9258 41.38 41.1978 41.9C41.4698 42.412 41.6058 43 41.6058 43.664C41.6058 44.328 41.4698 44.924 41.1978 45.452C40.9258 45.972 40.5498 46.38 40.0698 46.676C39.5978 46.964 39.0738 47.108 38.4978 47.108C37.9858 47.108 37.5298 47.008 37.1298 46.808C36.7378 46.608 36.4258 46.352 36.1938 46.04V47H34.8258V38.12H36.1938V41.372ZM40.2138 43.664C40.2138 43.208 40.1178 42.816 39.9258 42.488C39.7418 42.152 39.4938 41.9 39.1818 41.732C38.8778 41.556 38.5498 41.468 38.1978 41.468C37.8538 41.468 37.5258 41.556 37.2138 41.732C36.9098 41.908 36.6618 42.164 36.4698 42.5C36.2858 42.836 36.1938 43.232 36.1938 43.688C36.1938 44.144 36.2858 44.544 36.4698 44.888C36.6618 45.224 36.9098 45.48 37.2138 45.656C37.5258 45.832 37.8538 45.92 38.1978 45.92C38.5498 45.92 38.8778 45.832 39.1818 45.656C39.4938 45.472 39.7418 45.208 39.9258 44.864C40.1178 44.52 40.2138 44.12 40.2138 43.664ZM45.3586 47.108C44.8386 47.108 44.3706 47.016 43.9546 46.832C43.5466 46.64 43.2226 46.384 42.9826 46.064C42.7426 45.736 42.6146 45.372 42.5986 44.972H44.0146C44.0386 45.252 44.1706 45.488 44.4106 45.68C44.6586 45.864 44.9666 45.956 45.3346 45.956C45.7186 45.956 46.0146 45.884 46.2226 45.74C46.4386 45.588 46.5466 45.396 46.5466 45.164C46.5466 44.916 46.4266 44.732 46.1866 44.612C45.9546 44.492 45.5826 44.36 45.0706 44.216C44.5746 44.08 44.1706 43.948 43.8586 43.82C43.5466 43.692 43.2746 43.496 43.0426 43.232C42.8186 42.968 42.7066 42.62 42.7066 42.188C42.7066 41.836 42.8106 41.516 43.0186 41.228C43.2266 40.932 43.5226 40.7 43.9066 40.532C44.2986 40.364 44.7466 40.28 45.2506 40.28C46.0026 40.28 46.6066 40.472 47.0626 40.856C47.5266 41.232 47.7746 41.748 47.8066 42.404H46.4386C46.4146 42.108 46.2946 41.872 46.0786 41.696C45.8626 41.52 45.5706 41.432 45.2026 41.432C44.8426 41.432 44.5666 41.5 44.3746 41.636C44.1826 41.772 44.0866 41.952 44.0866 42.176C44.0866 42.352 44.1506 42.5 44.2786 42.62C44.4066 42.74 44.5626 42.836 44.7466 42.908C44.9306 42.972 45.2026 43.056 45.5626 43.16C46.0426 43.288 46.4346 43.42 46.7386 43.556C47.0506 43.684 47.3186 43.876 47.5426 44.132C47.7666 44.388 47.8826 44.728 47.8906 45.152C47.8906 45.528 47.7866 45.864 47.5786 46.16C47.3706 46.456 47.0746 46.688 46.6906 46.856C46.3146 47.024 45.8706 47.108 45.3586 47.108Z" fill="white"/>
</svg>
