<svg width="68" height="52" viewBox="0 0 68 52" fill="none" xmlns="http://www.w3.org/2000/svg">
<path d="M38 7C38 9.20914 36.2091 11 34 11C31.7909 11 30 9.20914 30 7C30 4.79086 31.7909 3 34 3C36.2091 3 38 4.79086 38 7Z" stroke="white" stroke-width="2" stroke-linecap="round" stroke-linejoin="round"/>
<path d="M34 14C30.134 14 27 17.134 27 21H41C41 17.134 37.866 14 34 14Z" stroke="white" stroke-width="2" stroke-linecap="round" stroke-linejoin="round"/>
<path d="M21.732 41.144C21.732 41.568 21.632 41.968 21.432 42.344C21.232 42.72 20.912 43.028 20.472 43.268C20.032 43.5 19.468 43.616 18.78 43.616H17.268V47H15.9V38.66H18.78C19.42 38.66 19.96 38.772 20.4 38.996C20.848 39.212 21.18 39.508 21.396 39.884C21.62 40.26 21.732 40.68 21.732 41.144ZM18.78 42.5C19.3 42.5 19.688 42.384 19.944 42.152C20.2 41.912 20.328 41.576 20.328 41.144C20.328 40.232 19.812 39.776 18.78 39.776H17.268V42.5H18.78ZM24.4047 41.348C24.6047 41.012 24.8687 40.752 25.1967 40.568C25.5327 40.376 25.9287 40.28 26.3847 40.28V41.696H26.0367C25.5007 41.696 25.0927 41.832 24.8127 42.104C24.5407 42.376 24.4047 42.848 24.4047 43.52V47H23.0367V40.388H24.4047V41.348ZM30.5102 47.108C29.8862 47.108 29.3222 46.968 28.8182 46.688C28.3142 46.4 27.9182 46 27.6302 45.488C27.3422 44.968 27.1982 44.368 27.1982 43.688C27.1982 43.016 27.3462 42.42 27.6422 41.9C27.9382 41.38 28.3422 40.98 28.8542 40.7C29.3662 40.42 29.9382 40.28 30.5702 40.28C31.2022 40.28 31.7742 40.42 32.2862 40.7C32.7982 40.98 33.2022 41.38 33.4982 41.9C33.7942 42.42 33.9422 43.016 33.9422 43.688C33.9422 44.36 33.7902 44.956 33.4862 45.476C33.1822 45.996 32.7662 46.4 32.2382 46.688C31.7182 46.968 31.1422 47.108 30.5102 47.108ZM30.5102 45.92C30.8622 45.92 31.1902 45.836 31.4942 45.668C31.8062 45.5 32.0582 45.248 32.2502 44.912C32.4422 44.576 32.5382 44.168 32.5382 43.688C32.5382 43.208 32.4462 42.804 32.2622 42.476C32.0782 42.14 31.8342 41.888 31.5302 41.72C31.2262 41.552 30.8982 41.468 30.5462 41.468C30.1942 41.468 29.8662 41.552 29.5622 41.72C29.2662 41.888 29.0302 42.14 28.8542 42.476C28.6782 42.804 28.5902 43.208 28.5902 43.688C28.5902 44.4 28.7702 44.952 29.1302 45.344C29.4982 45.728 29.9582 45.92 30.5102 45.92ZM38.0665 41.504H36.8425V47H35.4625V41.504H34.6825V40.388H35.4625V39.92C35.4625 39.16 35.6625 38.608 36.0625 38.264C36.4705 37.912 37.1065 37.736 37.9705 37.736V38.876C37.5545 38.876 37.2625 38.956 37.0945 39.116C36.9265 39.268 36.8425 39.536 36.8425 39.92V40.388H38.0665V41.504ZM39.9749 39.512C39.7269 39.512 39.5189 39.428 39.3509 39.26C39.1829 39.092 39.0989 38.884 39.0989 38.636C39.0989 38.388 39.1829 38.18 39.3509 38.012C39.5189 37.844 39.7269 37.76 39.9749 37.76C40.2149 37.76 40.4189 37.844 40.5869 38.012C40.7549 38.18 40.8389 38.388 40.8389 38.636C40.8389 38.884 40.7549 39.092 40.5869 39.26C40.4189 39.428 40.2149 39.512 39.9749 39.512ZM40.6469 40.388V47H39.2789V40.388H40.6469ZM43.811 38.12V47H42.443V38.12H43.811ZM51.667 43.532C51.667 43.78 51.651 44.004 51.619 44.204H46.567C46.607 44.732 46.803 45.156 47.155 45.476C47.507 45.796 47.939 45.956 48.451 45.956C49.187 45.956 49.707 45.648 50.011 45.032H51.487C51.287 45.64 50.923 46.14 50.395 46.532C49.875 46.916 49.227 47.108 48.451 47.108C47.819 47.108 47.251 46.968 46.747 46.688C46.251 46.4 45.859 46 45.571 45.488C45.291 44.968 45.151 44.368 45.151 43.688C45.151 43.008 45.287 42.412 45.559 41.9C45.839 41.38 46.227 40.98 46.723 40.7C47.227 40.42 47.803 40.28 48.451 40.28C49.075 40.28 49.631 40.416 50.119 40.688C50.607 40.96 50.987 41.344 51.259 41.84C51.531 42.328 51.667 42.892 51.667 43.532ZM50.239 43.1C50.231 42.596 50.051 42.192 49.699 41.888C49.347 41.584 48.911 41.432 48.391 41.432C47.919 41.432 47.515 41.584 47.179 41.888C46.843 42.184 46.643 42.588 46.579 43.1H50.239Z" fill="white"/>
</svg>
