<svg width="24" height="24" viewBox="0 0 24 24" fill="none" xmlns="http://www.w3.org/2000/svg">
<path fill-rule="evenodd" clip-rule="evenodd" d="M3 3C3 2.44772 3.44772 2 4 2H8C8.55228 2 9 2.44772 9 3V21C9 21.5523 8.55228 22 8 22H4C3.44772 22 3 21.5523 3 21V3Z" fill="currentColor"/>
<path fill-rule="evenodd" clip-rule="evenodd" d="M10 8C10 7.44772 10.4477 7 11 7H14C14.5523 7 15 7.44772 15 8V21C15 21.5523 14.5523 22 14 22H11C10.4477 22 10 21.5523 10 21V8Z" fill="currentColor"/>
<path fill-rule="evenodd" clip-rule="evenodd" d="M17 12C17 11.4477 17.4477 11 18 11H21C21.5523 11 22 11.4477 22 12V21C22 21.5523 21.5523 22 21 22H18C17.4477 22 17 21.5523 17 21V12Z" fill="currentColor"/>
</svg>
