<svg width="24" height="24" viewBox="0 0 24 24" fill="none" xmlns="http://www.w3.org/2000/svg">
<path d="M13 12H12V13V14C13.1046 14 14 13.1045 14 12H13ZM12 13V12H11H10C10 13.1045 10.8954 14 12 14V13ZM11 12H12V11V9.99995C10.8954 9.99995 10 10.8954 10 12H11ZM12 11V12H13H14C14 10.8954 13.1046 9.99995 12 9.99995V11ZM12 12V13H12.01V12V11H12V12ZM15.5355 15.5355L14.8284 14.8284C12.7577 16.8991 10.5344 18.3566 8.64888 19.0636C6.67056 19.8055 5.45745 19.5995 4.92893 19.071L4.22183 19.7781L3.51472 20.4852C4.93883 21.9093 7.23469 21.7299 9.35113 20.9363C11.5604 20.1078 14.0176 18.4677 16.2426 16.2426L15.5355 15.5355ZM4.22183 19.7781L4.92893 19.071C4.40042 18.5425 4.19446 17.3294 4.93633 15.3511C5.64338 13.4656 7.10087 11.2422 9.17158 9.17152L8.46447 8.46442L7.75736 7.75731C5.5323 9.98237 3.89216 12.4395 3.06367 14.6488C2.27001 16.7653 2.09061 19.0611 3.51472 20.4852L4.22183 19.7781ZM8.46447 8.46442L9.17158 9.17152C11.2423 7.10082 13.4657 5.64333 15.3511 4.93628C17.3294 4.19441 18.5426 4.40037 19.0711 4.92888L19.7782 4.22178L20.4853 3.51467C19.0612 2.09056 16.7653 2.26996 14.6489 3.06362C12.4396 3.8921 9.98242 5.53225 7.75736 7.75731L8.46447 8.46442ZM19.7782 4.22178L19.0711 4.92888C19.5996 5.4574 19.8055 6.67051 19.0637 8.64883C18.3566 10.5343 16.8991 12.7577 14.8284 14.8284L15.5355 15.5355L16.2426 16.2426C18.4677 14.0175 20.1078 11.5604 20.9363 9.35108C21.73 7.23464 21.9094 4.93878 20.4853 3.51467L19.7782 4.22178ZM15.5355 8.46442L14.8284 9.17152C16.8991 11.2422 18.3566 13.4656 19.0637 15.3511C19.8055 17.3294 19.5996 18.5425 19.0711 19.071L19.7782 19.7781L20.4853 20.4852C21.9094 19.0611 21.73 16.7653 20.9363 14.6488C20.1078 12.4395 18.4677 9.98237 16.2426 7.75731L15.5355 8.46442ZM19.7782 19.7781L19.0711 19.071C18.5426 19.5995 17.3294 19.8055 15.3511 19.0636C13.4657 18.3566 11.2423 16.8991 9.17157 14.8284L8.46447 15.5355L7.75736 16.2426C9.98242 18.4677 12.4396 20.1078 14.6489 20.9363C16.7653 21.7299 19.0612 21.9093 20.4853 20.4852L19.7782 19.7781ZM8.46447 15.5355L9.17157 14.8284C7.10087 12.7577 5.64338 10.5343 4.93633 8.64883C4.19446 6.67051 4.40042 5.4574 4.92893 4.92888L4.22183 4.22178L3.51472 3.51467C2.09061 4.93878 2.27001 7.23464 3.06367 9.35108C3.89215 11.5604 5.5323 14.0175 7.75736 16.2426L8.46447 15.5355ZM4.22183 4.22178L4.92893 4.92888C5.45745 4.40037 6.67056 4.19441 8.64888 4.93628C10.5343 5.64333 12.7577 7.10082 14.8284 9.17152L15.5355 8.46442L16.2426 7.75731C14.0176 5.53225 11.5604 3.8921 9.35113 3.06362C7.23469 2.26996 4.93883 2.09056 3.51472 3.51467L4.22183 4.22178Z" fill="#2563EB" fill-opacity="0.8"/>
<path d="M13 12H12V13V14C13.1046 14 14 13.1045 14 12H13ZM12 13V12H11H10C10 13.1045 10.8954 14 12 14V13ZM11 12H12V11V9.99995C10.8954 9.99995 10 10.8954 10 12H11ZM12 11V12H13H14C14 10.8954 13.1046 9.99995 12 9.99995V11ZM12 12V13H12.01V12V11H12V12ZM15.5355 15.5355L14.8284 14.8284C12.7577 16.8991 10.5344 18.3566 8.64888 19.0636C6.67056 19.8055 5.45745 19.5995 4.92893 19.071L4.22183 19.7781L3.51472 20.4852C4.93883 21.9093 7.23469 21.7299 9.35113 20.9363C11.5604 20.1078 14.0176 18.4677 16.2426 16.2426L15.5355 15.5355ZM4.22183 19.7781L4.92893 19.071C4.40042 18.5425 4.19446 17.3294 4.93633 15.3511C5.64338 13.4656 7.10087 11.2422 9.17158 9.17152L8.46447 8.46442L7.75736 7.75731C5.5323 9.98237 3.89216 12.4395 3.06367 14.6488C2.27001 16.7653 2.09061 19.0611 3.51472 20.4852L4.22183 19.7781ZM8.46447 8.46442L9.17158 9.17152C11.2423 7.10082 13.4657 5.64333 15.3511 4.93628C17.3294 4.19441 18.5426 4.40037 19.0711 4.92888L19.7782 4.22178L20.4853 3.51467C19.0612 2.09056 16.7653 2.26996 14.6489 3.06362C12.4396 3.8921 9.98242 5.53225 7.75736 7.75731L8.46447 8.46442ZM19.7782 4.22178L19.0711 4.92888C19.5996 5.4574 19.8055 6.67051 19.0637 8.64883C18.3566 10.5343 16.8991 12.7577 14.8284 14.8284L15.5355 15.5355L16.2426 16.2426C18.4677 14.0175 20.1078 11.5604 20.9363 9.35108C21.73 7.23464 21.9094 4.93878 20.4853 3.51467L19.7782 4.22178ZM15.5355 8.46442L14.8284 9.17152C16.8991 11.2422 18.3566 13.4656 19.0637 15.3511C19.8055 17.3294 19.5996 18.5425 19.0711 19.071L19.7782 19.7781L20.4853 20.4852C21.9094 19.0611 21.73 16.7653 20.9363 14.6488C20.1078 12.4395 18.4677 9.98237 16.2426 7.75731L15.5355 8.46442ZM19.7782 19.7781L19.0711 19.071C18.5426 19.5995 17.3294 19.8055 15.3511 19.0636C13.4657 18.3566 11.2423 16.8991 9.17157 14.8284L8.46447 15.5355L7.75736 16.2426C9.98242 18.4677 12.4396 20.1078 14.6489 20.9363C16.7653 21.7299 19.0612 21.9093 20.4853 20.4852L19.7782 19.7781ZM8.46447 15.5355L9.17157 14.8284C7.10087 12.7577 5.64338 10.5343 4.93633 8.64883C4.19446 6.67051 4.40042 5.4574 4.92893 4.92888L4.22183 4.22178L3.51472 3.51467C2.09061 4.93878 2.27001 7.23464 3.06367 9.35108C3.89215 11.5604 5.5323 14.0175 7.75736 16.2426L8.46447 15.5355ZM4.22183 4.22178L4.92893 4.92888C5.45745 4.40037 6.67056 4.19441 8.64888 4.93628C10.5343 5.64333 12.7577 7.10082 14.8284 9.17152L15.5355 8.46442L16.2426 7.75731C14.0176 5.53225 11.5604 3.8921 9.35113 3.06362C7.23469 2.26996 4.93883 2.09056 3.51472 3.51467L4.22183 4.22178Z" fill="url(#paint0_linear_1515_1892)" fill-opacity="0.9"/>
<defs>
<linearGradient id="paint0_linear_1515_1892" x1="3.69495" y1="3.46706" x2="17.0557" y2="23.112" gradientUnits="userSpaceOnUse">
<stop offset="0.1" stop-color="#06B6D4"/>
<stop offset="0.5" stop-color="#8B5CF6" stop-opacity="0"/>
<stop offset="0.9" stop-color="#8B5CF6"/>
</linearGradient>
</defs>
</svg>
