<svg width="24" height="24" viewBox="0 0 24 24" fill="none" xmlns="http://www.w3.org/2000/svg">
<path d="M17 20C17 18.3431 14.7614 17 12 17C9.23858 17 7 18.3431 7 20" stroke="currentColor" stroke-width="2" stroke-linecap="round"/>
<path d="M12 14C13.6569 14 15 12.6569 15 11C15 9.34315 13.6569 8 12 8C10.3431 8 9 9.34315 9 11C9 12.6569 10.3431 14 12 14Z" stroke="currentColor" stroke-width="2" stroke-linecap="round"/>
<path d="M21 17C21 15.7574 19.6569 14.6863 17.8284 14.2929" stroke="currentColor" stroke-width="2" stroke-linecap="round"/>
<path d="M18 11C19.1046 11 20 10.1046 20 9C20 7.89543 19.1046 7 18 7" stroke="currentColor" stroke-width="2" stroke-linecap="round"/>
<path d="M3 17C3 15.7574 4.34315 14.6863 6.17157 14.2929" stroke="currentColor" stroke-width="2" stroke-linecap="round"/>
<path d="M6 11C4.89543 11 4 10.1046 4 9C4 7.89543 4.89543 7 6 7" stroke="currentColor" stroke-width="2" stroke-linecap="round"/>
</svg>
