<svg width="18" height="18" viewBox="0 0 18 18" fill="none" xmlns="http://www.w3.org/2000/svg">
<g clip-path="url(#clip0_331_2770)">
<path d="M8.99993 0C11.4852 0 13.7351 1.00737 15.3639 2.63613C16.9926 4.26475 18 6.51489 18 9C18 11.4854 16.9926 13.7353 15.3639 15.3639C13.7351 16.9926 11.4852 18 8.99993 18C6.51469 18 4.26471 16.9926 2.63611 15.3639C1.00736 13.7353 0 11.4853 0 8.99985C0 6.51475 1.00736 4.2646 2.63611 2.63599C4.26471 1.00737 6.51469 0 8.99993 0ZM11.7421 5.47397C11.9327 5.28325 12.2419 5.28325 12.4325 5.47397C12.623 5.66455 12.623 5.97363 12.4325 6.16436L9.59641 9.00059L12.4325 11.8368C12.623 12.0274 12.623 12.3365 12.4325 12.5272C12.2419 12.7178 11.9327 12.7178 11.7421 12.5272L8.90588 9.69097L6.06968 12.5273C5.8791 12.7179 5.56988 12.7179 5.3793 12.5273C5.18873 12.3366 5.18873 12.0275 5.3793 11.837L8.21566 9.00073L5.3793 6.16436C5.18873 5.97363 5.18873 5.66455 5.3793 5.47397C5.56988 5.28325 5.8791 5.28325 6.06968 5.47397L8.90603 8.3102L11.7421 5.47397ZM14.6735 3.32637C13.2216 1.87441 11.2156 0.976465 8.99993 0.976465C6.78422 0.976465 4.77843 1.87441 3.32649 3.32637C1.87455 4.77832 0.976457 6.78428 0.976457 8.99985C0.976457 11.2156 1.87455 13.2215 3.32634 14.6735C4.77828 16.1253 6.78408 17.0234 8.99978 17.0234C11.2155 17.0234 13.2214 16.1253 14.6734 14.6735C16.1253 13.2215 17.0234 11.2156 17.0234 8.99985C17.0235 6.78428 16.1255 4.77832 14.6735 3.32637Z" fill="#FF383C"/>
</g>
<defs>
<clipPath id="clip0_331_2770">
<rect width="18" height="18" fill="white"/>
</clipPath>
</defs>
</svg>
