<svg width="102" height="64" viewBox="0 0 102 64" fill="none" xmlns="http://www.w3.org/2000/svg">
<path d="M59 13H37V35H59V13Z" fill="white"/>
<path d="M49.6797 20.92L50.6877 22.36L52.2717 21.208V29.56H53.9997V18.616H52.5597L49.6797 20.92Z" fill="#1E88E5"/>
<path d="M46.943 23.7449C47.568 23.1709 47.956 22.3749 47.956 21.4959C47.956 19.7489 46.423 18.3279 44.539 18.3279C42.937 18.3279 41.567 19.3369 41.209 20.7809L42.866 21.2019C43.031 20.5379 43.734 20.0559 44.539 20.0559C45.481 20.0559 46.248 20.7019 46.248 21.4959C46.248 22.2899 45.481 22.9359 44.539 22.9359H43.542V24.6639H44.539C45.62 24.6639 46.532 25.4149 46.532 26.3039C46.532 27.2079 45.666 27.9439 44.601 27.9439C43.639 27.9439 42.817 27.3339 42.687 26.5259L41 26.8019C41.262 28.4379 42.81 29.6719 44.6 29.6719C46.607 29.6719 48.24 28.1609 48.24 26.3039C48.24 25.2809 47.736 24.3629 46.943 23.7449Z" fill="#1E88E5"/>
<path d="M58 42H38L37 38L38 34H58L59 38L58 42Z" fill="#FBC02D"/>
<path d="M62 35L66 34V14L62 13L58 14V34L62 35Z" fill="#4CAF50"/>
<path d="M58 14L59 10L58 6H33C31.343 6 30 7.343 30 9V34L34 35L38 34V14H58Z" fill="#1E88E5"/>
<path d="M58 34V42L66 34H58Z" fill="#E53935"/>
<path d="M63 6H58V14H66V9C66 7.343 64.657 6 63 6Z" fill="#1565C0"/>
<path d="M33 42H38V34H30V39C30 40.657 31.343 42 33 42Z" fill="#1565C0"/>
<rect x="70" y="40" width="8" height="8" rx="4" fill="#10B981"/>
<path d="M7.136 61.144C6.504 61.144 5.924 61.032 5.396 60.808C4.868 60.576 4.408 60.256 4.016 59.848C3.632 59.432 3.332 58.944 3.116 58.384C2.9 57.824 2.792 57.208 2.792 56.536C2.792 55.864 2.9 55.248 3.116 54.688C3.332 54.128 3.632 53.64 4.016 53.224C4.408 52.808 4.868 52.488 5.396 52.264C5.924 52.032 6.504 51.916 7.136 51.916C7.744 51.916 8.288 52.024 8.768 52.24C9.256 52.456 9.664 52.736 9.992 53.08C10.328 53.416 10.568 53.772 10.712 54.148L9.848 54.568C9.624 54.024 9.28 53.596 8.816 53.284C8.352 52.972 7.792 52.816 7.136 52.816C6.48 52.816 5.896 52.972 5.384 53.284C4.872 53.596 4.472 54.032 4.184 54.592C3.896 55.144 3.752 55.792 3.752 56.536C3.752 57.272 3.896 57.92 4.184 58.48C4.472 59.04 4.872 59.476 5.384 59.788C5.896 60.092 6.48 60.244 7.136 60.244C7.72 60.244 8.244 60.116 8.708 59.86C9.18 59.604 9.552 59.256 9.824 58.816C10.096 58.368 10.232 57.856 10.232 57.28V56.788L10.664 57.22H7.136V56.38H11.192V57.124C11.192 57.708 11.088 58.248 10.88 58.744C10.672 59.232 10.384 59.656 10.016 60.016C9.648 60.376 9.216 60.656 8.72 60.856C8.232 61.048 7.704 61.144 7.136 61.144ZM15.7915 61.144C15.1835 61.144 14.6315 61 14.1355 60.712C13.6395 60.416 13.2435 60.016 12.9475 59.512C12.6595 59 12.5155 58.42 12.5155 57.772C12.5155 57.132 12.6595 56.56 12.9475 56.056C13.2355 55.552 13.6235 55.156 14.1115 54.868C14.6075 54.572 15.1675 54.424 15.7915 54.424C16.4155 54.424 16.9715 54.568 17.4595 54.856C17.9555 55.144 18.3435 55.54 18.6235 56.044C18.9115 56.548 19.0555 57.124 19.0555 57.772C19.0555 58.428 18.9075 59.012 18.6115 59.524C18.3155 60.028 17.9195 60.424 17.4235 60.712C16.9355 61 16.3915 61.144 15.7915 61.144ZM15.7915 60.244C16.2235 60.244 16.6115 60.136 16.9555 59.92C17.3075 59.704 17.5835 59.408 17.7835 59.032C17.9915 58.656 18.0955 58.236 18.0955 57.772C18.0955 57.308 17.9915 56.892 17.7835 56.524C17.5835 56.156 17.3075 55.864 16.9555 55.648C16.6115 55.432 16.2235 55.324 15.7915 55.324C15.3595 55.324 14.9675 55.432 14.6155 55.648C14.2715 55.864 13.9955 56.156 13.7875 56.524C13.5795 56.892 13.4755 57.308 13.4755 57.772C13.4755 58.236 13.5795 58.656 13.7875 59.032C13.9955 59.408 14.2715 59.704 14.6155 59.92C14.9675 60.136 15.3595 60.244 15.7915 60.244ZM23.6548 61.144C23.0468 61.144 22.4948 61 21.9988 60.712C21.5028 60.416 21.1068 60.016 20.8108 59.512C20.5228 59 20.3788 58.42 20.3788 57.772C20.3788 57.132 20.5228 56.56 20.8108 56.056C21.0988 55.552 21.4868 55.156 21.9748 54.868C22.4708 54.572 23.0308 54.424 23.6548 54.424C24.2788 54.424 24.8348 54.568 25.3228 54.856C25.8188 55.144 26.2068 55.54 26.4868 56.044C26.7748 56.548 26.9188 57.124 26.9188 57.772C26.9188 58.428 26.7708 59.012 26.4748 59.524C26.1788 60.028 25.7828 60.424 25.2868 60.712C24.7988 61 24.2548 61.144 23.6548 61.144ZM23.6548 60.244C24.0868 60.244 24.4748 60.136 24.8188 59.92C25.1708 59.704 25.4468 59.408 25.6468 59.032C25.8548 58.656 25.9588 58.236 25.9588 57.772C25.9588 57.308 25.8548 56.892 25.6468 56.524C25.4468 56.156 25.1708 55.864 24.8188 55.648C24.4748 55.432 24.0868 55.324 23.6548 55.324C23.2228 55.324 22.8308 55.432 22.4788 55.648C22.1348 55.864 21.8588 56.156 21.6508 56.524C21.4428 56.892 21.3388 57.308 21.3388 57.772C21.3388 58.236 21.4428 58.656 21.6508 59.032C21.8588 59.408 22.1348 59.704 22.4788 59.92C22.8308 60.136 23.2228 60.244 23.6548 60.244ZM31.554 63.64C31.114 63.64 30.706 63.572 30.33 63.436C29.962 63.3 29.642 63.112 29.37 62.872C29.106 62.64 28.902 62.368 28.758 62.056L29.586 61.612C29.714 61.916 29.942 62.18 30.27 62.404C30.598 62.628 31.018 62.74 31.53 62.74C31.922 62.74 32.282 62.664 32.61 62.512C32.938 62.36 33.202 62.136 33.402 61.84C33.602 61.544 33.702 61.18 33.702 60.748V59.32L33.846 59.452C33.622 59.916 33.29 60.276 32.85 60.532C32.41 60.78 31.93 60.904 31.41 60.904C30.81 60.904 30.27 60.76 29.79 60.472C29.31 60.184 28.93 59.796 28.65 59.308C28.378 58.812 28.242 58.264 28.242 57.664C28.242 57.056 28.378 56.508 28.65 56.02C28.93 55.532 29.306 55.144 29.778 54.856C30.258 54.568 30.802 54.424 31.41 54.424C31.93 54.424 32.402 54.544 32.826 54.784C33.258 55.024 33.598 55.348 33.846 55.756L33.702 56.008V54.568H34.602V60.748C34.602 61.3 34.47 61.792 34.206 62.224C33.95 62.664 33.59 63.008 33.126 63.256C32.67 63.512 32.146 63.64 31.554 63.64ZM31.458 60.004C31.874 60.004 32.25 59.9 32.586 59.692C32.922 59.476 33.19 59.192 33.39 58.84C33.598 58.48 33.702 58.088 33.702 57.664C33.702 57.24 33.598 56.852 33.39 56.5C33.19 56.14 32.922 55.856 32.586 55.648C32.25 55.432 31.874 55.324 31.458 55.324C31.034 55.324 30.65 55.432 30.306 55.648C29.962 55.856 29.69 56.136 29.49 56.488C29.298 56.84 29.202 57.232 29.202 57.664C29.202 58.088 29.298 58.48 29.49 58.84C29.69 59.192 29.958 59.476 30.294 59.692C30.638 59.9 31.026 60.004 31.458 60.004ZM36.4513 61V51.916H37.3513V61H36.4513ZM42.1215 61.144C41.5215 61.144 40.9775 61 40.4895 60.712C40.0095 60.416 39.6295 60.012 39.3495 59.5C39.0695 58.988 38.9295 58.408 38.9295 57.76C38.9295 57.112 39.0655 56.54 39.3375 56.044C39.6095 55.54 39.9775 55.144 40.4415 54.856C40.9135 54.568 41.4415 54.424 42.0255 54.424C42.4895 54.424 42.9015 54.512 43.2615 54.688C43.6295 54.856 43.9415 55.088 44.1975 55.384C44.4535 55.672 44.6495 56 44.7855 56.368C44.9215 56.728 44.9895 57.1 44.9895 57.484C44.9895 57.564 44.9855 57.656 44.9775 57.76C44.9695 57.856 44.9575 57.956 44.9415 58.06H39.5055V57.22H44.4255L43.9935 57.58C44.0655 57.14 44.0135 56.748 43.8375 56.404C43.6695 56.052 43.4255 55.776 43.1055 55.576C42.7855 55.368 42.4255 55.264 42.0255 55.264C41.6255 55.264 41.2535 55.368 40.9095 55.576C40.5735 55.784 40.3095 56.076 40.1175 56.452C39.9255 56.82 39.8495 57.26 39.8895 57.772C39.8495 58.284 39.9295 58.732 40.1295 59.116C40.3375 59.492 40.6175 59.784 40.9695 59.992C41.3295 60.2 41.7135 60.304 42.1215 60.304C42.5935 60.304 42.9895 60.192 43.3095 59.968C43.6295 59.744 43.8895 59.464 44.0895 59.128L44.8575 59.536C44.7295 59.824 44.5335 60.092 44.2695 60.34C44.0055 60.58 43.6895 60.776 43.3215 60.928C42.9615 61.072 42.5615 61.144 42.1215 61.144ZM52.8274 61.144C52.1954 61.144 51.6154 61.032 51.0874 60.808C50.5594 60.576 50.0994 60.256 49.7074 59.848C49.3234 59.432 49.0234 58.944 48.8074 58.384C48.5914 57.824 48.4834 57.208 48.4834 56.536C48.4834 55.864 48.5914 55.248 48.8074 54.688C49.0234 54.128 49.3234 53.64 49.7074 53.224C50.0994 52.808 50.5594 52.488 51.0874 52.264C51.6154 52.032 52.1954 51.916 52.8274 51.916C53.4354 51.916 53.9794 52.024 54.4594 52.24C54.9474 52.456 55.3554 52.736 55.6834 53.08C56.0194 53.416 56.2594 53.772 56.4034 54.148L55.5034 54.544C55.2794 54.024 54.9354 53.608 54.4714 53.296C54.0154 52.976 53.4674 52.816 52.8274 52.816C52.1714 52.816 51.5874 52.972 51.0754 53.284C50.5634 53.596 50.1634 54.032 49.8754 54.592C49.5874 55.144 49.4434 55.792 49.4434 56.536C49.4434 57.272 49.5874 57.92 49.8754 58.48C50.1634 59.04 50.5634 59.476 51.0754 59.788C51.5874 60.092 52.1714 60.244 52.8274 60.244C53.4674 60.244 54.0154 60.088 54.4714 59.776C54.9354 59.464 55.2794 59.048 55.5034 58.528L56.4034 58.924C56.2594 59.292 56.0194 59.648 55.6834 59.992C55.3554 60.328 54.9474 60.604 54.4594 60.82C53.9794 61.036 53.4354 61.144 52.8274 61.144ZM59.7332 61.144C59.3252 61.144 58.9612 61.068 58.6412 60.916C58.3212 60.756 58.0692 60.54 57.8852 60.268C57.7012 59.996 57.6092 59.684 57.6092 59.332C57.6092 58.996 57.6812 58.692 57.8252 58.42C57.9692 58.14 58.1932 57.904 58.4972 57.712C58.8012 57.52 59.1892 57.384 59.6612 57.304L62.1812 56.884V57.7L59.8772 58.084C59.4132 58.164 59.0772 58.312 58.8692 58.528C58.6692 58.744 58.5692 59 58.5692 59.296C58.5692 59.584 58.6812 59.828 58.9052 60.028C59.1372 60.228 59.4332 60.328 59.7932 60.328C60.2332 60.328 60.6172 60.236 60.9452 60.052C61.2732 59.86 61.5292 59.604 61.7132 59.284C61.8972 58.964 61.9892 58.608 61.9892 58.216V56.584C61.9892 56.2 61.8492 55.888 61.5692 55.648C61.2892 55.408 60.9252 55.288 60.4772 55.288C60.0852 55.288 59.7412 55.388 59.4452 55.588C59.1492 55.78 58.9292 56.032 58.7852 56.344L57.9692 55.9C58.0892 55.628 58.2772 55.38 58.5332 55.156C58.7972 54.932 59.0972 54.756 59.4332 54.628C59.7692 54.492 60.1172 54.424 60.4772 54.424C60.9492 54.424 61.3652 54.516 61.7252 54.7C62.0932 54.884 62.3772 55.14 62.5772 55.468C62.7852 55.788 62.8892 56.16 62.8892 56.584V61H61.9892V59.716L62.1212 59.848C62.0092 60.088 61.8332 60.308 61.5932 60.508C61.3612 60.7 61.0852 60.856 60.7652 60.976C60.4532 61.088 60.1092 61.144 59.7332 61.144ZM64.7404 61V51.916H65.6404V61H64.7404ZM70.4106 61.144C69.8106 61.144 69.2666 61 68.7786 60.712C68.2986 60.416 67.9186 60.012 67.6386 59.5C67.3586 58.988 67.2186 58.408 67.2186 57.76C67.2186 57.112 67.3546 56.54 67.6266 56.044C67.8986 55.54 68.2666 55.144 68.7306 54.856C69.2026 54.568 69.7306 54.424 70.3146 54.424C70.7786 54.424 71.1906 54.512 71.5506 54.688C71.9186 54.856 72.2306 55.088 72.4866 55.384C72.7426 55.672 72.9386 56 73.0746 56.368C73.2106 56.728 73.2786 57.1 73.2786 57.484C73.2786 57.564 73.2746 57.656 73.2666 57.76C73.2586 57.856 73.2466 57.956 73.2306 58.06H67.7946V57.22H72.7146L72.2826 57.58C72.3546 57.14 72.3026 56.748 72.1266 56.404C71.9586 56.052 71.7146 55.776 71.3946 55.576C71.0746 55.368 70.7146 55.264 70.3146 55.264C69.9146 55.264 69.5426 55.368 69.1986 55.576C68.8626 55.784 68.5986 56.076 68.4066 56.452C68.2146 56.82 68.1386 57.26 68.1786 57.772C68.1386 58.284 68.2186 58.732 68.4186 59.116C68.6266 59.492 68.9066 59.784 69.2586 59.992C69.6186 60.2 70.0026 60.304 70.4106 60.304C70.8826 60.304 71.2786 60.192 71.5986 59.968C71.9186 59.744 72.1786 59.464 72.3786 59.128L73.1466 59.536C73.0186 59.824 72.8226 60.092 72.5586 60.34C72.2946 60.58 71.9786 60.776 71.6106 60.928C71.2506 61.072 70.8506 61.144 70.4106 61.144ZM74.8654 61V54.568H75.7654V55.816L75.5614 55.768C75.7214 55.352 75.9814 55.024 76.3414 54.784C76.7094 54.544 77.1334 54.424 77.6134 54.424C78.0694 54.424 78.4774 54.528 78.8374 54.736C79.2054 54.944 79.4934 55.232 79.7014 55.6C79.9174 55.96 80.0254 56.368 80.0254 56.824V61H79.1254V57.172C79.1254 56.78 79.0534 56.448 78.9094 56.176C78.7734 55.904 78.5774 55.696 78.3214 55.552C78.0734 55.4 77.7854 55.324 77.4574 55.324C77.1294 55.324 76.8374 55.4 76.5814 55.552C76.3254 55.696 76.1254 55.908 75.9814 56.188C75.8374 56.46 75.7654 56.788 75.7654 57.172V61H74.8654ZM84.6483 61.144C84.0483 61.144 83.5083 61 83.0283 60.712C82.5483 60.416 82.1683 60.016 81.8883 59.512C81.6163 59 81.4803 58.424 81.4803 57.784C81.4803 57.136 81.6163 56.56 81.8883 56.056C82.1683 55.552 82.5443 55.156 83.0163 54.868C83.4963 54.572 84.0403 54.424 84.6483 54.424C85.2003 54.424 85.6923 54.544 86.1243 54.784C86.5563 55.024 86.8963 55.348 87.1443 55.756L87.0003 56.008V51.916H87.9003V61H87.0003V59.56L87.1443 59.692C86.9203 60.156 86.5843 60.516 86.1363 60.772C85.6963 61.02 85.2003 61.144 84.6483 61.144ZM84.6963 60.244C85.1283 60.244 85.5163 60.136 85.8603 59.92C86.2123 59.704 86.4883 59.412 86.6883 59.044C86.8963 58.668 87.0003 58.248 87.0003 57.784C87.0003 57.32 86.8963 56.904 86.6883 56.536C86.4883 56.16 86.2123 55.864 85.8603 55.648C85.5163 55.432 85.1283 55.324 84.6963 55.324C84.2723 55.324 83.8883 55.432 83.5443 55.648C83.2003 55.864 82.9283 56.156 82.7283 56.524C82.5363 56.892 82.4403 57.312 82.4403 57.784C82.4403 58.248 82.5363 58.668 82.7283 59.044C82.9283 59.412 83.1963 59.704 83.5323 59.92C83.8763 60.136 84.2643 60.244 84.6963 60.244ZM91.6082 61.144C91.2002 61.144 90.8362 61.068 90.5162 60.916C90.1962 60.756 89.9442 60.54 89.7602 60.268C89.5762 59.996 89.4842 59.684 89.4842 59.332C89.4842 58.996 89.5562 58.692 89.7002 58.42C89.8442 58.14 90.0682 57.904 90.3722 57.712C90.6762 57.52 91.0642 57.384 91.5362 57.304L94.0562 56.884V57.7L91.7522 58.084C91.2882 58.164 90.9522 58.312 90.7442 58.528C90.5442 58.744 90.4442 59 90.4442 59.296C90.4442 59.584 90.5562 59.828 90.7802 60.028C91.0122 60.228 91.3082 60.328 91.6682 60.328C92.1082 60.328 92.4922 60.236 92.8202 60.052C93.1482 59.86 93.4042 59.604 93.5882 59.284C93.7722 58.964 93.8642 58.608 93.8642 58.216V56.584C93.8642 56.2 93.7242 55.888 93.4442 55.648C93.1642 55.408 92.8002 55.288 92.3522 55.288C91.9602 55.288 91.6162 55.388 91.3202 55.588C91.0242 55.78 90.8042 56.032 90.6602 56.344L89.8442 55.9C89.9642 55.628 90.1522 55.38 90.4082 55.156C90.6722 54.932 90.9722 54.756 91.3082 54.628C91.6442 54.492 91.9922 54.424 92.3522 54.424C92.8242 54.424 93.2402 54.516 93.6002 54.7C93.9682 54.884 94.2522 55.14 94.4522 55.468C94.6602 55.788 94.7642 56.16 94.7642 56.584V61H93.8642V59.716L93.9962 59.848C93.8842 60.088 93.7082 60.308 93.4682 60.508C93.2362 60.7 92.9602 60.856 92.6402 60.976C92.3282 61.088 91.9842 61.144 91.6082 61.144ZM96.6154 61V54.568H97.5154V55.624L97.3954 55.468C97.5474 55.164 97.7754 54.924 98.0794 54.748C98.3914 54.572 98.7674 54.484 99.2074 54.484H99.6154V55.384H99.0514C98.5874 55.384 98.2154 55.528 97.9354 55.816C97.6554 56.104 97.5154 56.512 97.5154 57.04V61H96.6154Z" fill="black"/>
</svg>
