<svg width="18" height="18" viewBox="0 0 18 18" fill="none" xmlns="http://www.w3.org/2000/svg">
<g clip-path="url(#clip0_331_2733)">
<path d="M8.99993 0C11.4852 0 13.7351 1.00737 15.3639 2.63599C16.9926 4.2646 18 6.51475 18 8.99985C18 11.4853 16.9926 13.7353 15.3639 15.3639C13.7351 16.9925 11.4852 18 8.99993 18C6.51469 18 4.26471 16.9926 2.63611 15.364C1.00751 13.7354 0 11.4853 0 8.99985C0 6.51475 1.00736 4.2646 2.63611 2.63599C4.26486 1.00737 6.51469 0 8.99993 0ZM5.06187 9.84067C4.86954 9.66665 4.8546 9.36958 5.02877 9.17725C5.20279 8.98491 5.49986 8.96997 5.69219 9.14399L7.66107 10.9293L12.2816 6.09009C12.4607 5.90171 12.7588 5.89438 12.9471 6.07339C13.1353 6.25254 13.1428 6.55049 12.9636 6.73872L8.02625 11.9099L8.02567 11.9093C7.85062 12.0935 7.55956 12.1053 7.37015 11.9339L5.06187 9.84067ZM14.6967 3.30322C13.2387 1.84541 11.2246 0.943506 8.99993 0.943506C6.77514 0.943506 4.761 1.84526 3.3032 3.30308C1.84525 4.76103 0.943645 6.77505 0.943645 8.99985C0.943645 11.2247 1.8454 13.2388 3.3032 14.6968C4.761 16.1546 6.77514 17.0563 8.99993 17.0563C11.2246 17.0563 13.2387 16.1546 14.6967 14.6968C16.1546 13.2388 17.0561 11.2248 17.0561 8.99985C17.0562 6.7752 16.1546 4.76103 14.6967 3.30322Z" fill="#437EF4"/>
</g>
<defs>
<clipPath id="clip0_331_2733">
<rect width="18" height="18" fill="white"/>
</clipPath>
</defs>
</svg>
