<svg width="27" height="27" viewBox="0 0 27 27" fill="none" xmlns="http://www.w3.org/2000/svg">
<path fill-rule="evenodd" clip-rule="evenodd" d="M13.3333 26.6667C20.6971 26.6667 26.6667 20.6971 26.6667 13.3333C26.6667 5.96954 20.6971 0 13.3333 0C5.96954 0 0 5.96954 0 13.3333C0 20.6971 5.96954 26.6667 13.3333 26.6667ZM19.6464 10.2377C20.1459 9.69662 20.1121 8.85307 19.571 8.3536C19.03 7.85413 18.1864 7.88787 17.6869 8.42897L11.2821 15.3676L8.97974 12.8734C8.48027 12.3323 7.63673 12.2986 7.09563 12.798C6.55454 13.2975 6.5208 14.1411 7.02027 14.6822L10.3023 18.2377C10.5547 18.5112 10.9099 18.6667 11.2821 18.6667C11.6542 18.6667 12.0094 18.5112 12.2618 18.2377L19.6464 10.2377Z" fill="#4ED9D5"/>
</svg>
