<svg width="40" height="40" viewBox="0 0 40 40" fill="none" xmlns="http://www.w3.org/2000/svg">
<rect width="40" height="40" rx="5" fill="url(#paint0_linear_209_916)"/>
<path d="M11.0275 18.022L14.6852 20.9482C15.1725 21.338 15.4162 21.5329 15.6875 21.6715C15.9282 21.7945 16.1844 21.8844 16.4492 21.9387C16.7477 22 17.0597 22 17.6837 22H22.3163C22.9403 22 23.2523 22 23.5508 21.9387C23.8156 21.8844 24.0718 21.7945 24.3125 21.6715C24.5838 21.5329 24.8275 21.338 25.3148 20.9482L28.9725 18.022M11.0275 18.022C11 18.4895 11 19.0642 11 19.8V24.2C11 25.8802 11 26.7202 11.327 27.362C11.6146 27.9265 12.0735 28.3854 12.638 28.673C13.2798 29 14.1198 29 15.8 29H24.2C25.8802 29 26.7202 29 27.362 28.673C27.9265 28.3854 28.3854 27.9265 28.673 27.362C29 26.7202 29 25.8802 29 24.2V19.8C29 19.0642 29 18.4895 28.9725 18.022M11.0275 18.022C11.0627 17.422 11.1432 16.9987 11.327 16.638C11.6146 16.0735 12.0735 15.6146 12.638 15.327C13.2798 15 14.1198 15 15.8 15H16M28.9725 18.022C28.9373 17.422 28.8568 16.9987 28.673 16.638C28.3854 16.0735 27.9265 15.6146 27.362 15.327C26.7202 15 25.8802 15 24.2 15H24M16 15V14C16 12.3431 17.3431 11 19 11H21C22.6569 11 24 12.3431 24 14V15M16 15H24" stroke="white" stroke-width="2" stroke-linecap="round" stroke-linejoin="round"/>
<defs>
<linearGradient id="paint0_linear_209_916" x1="20" y1="0" x2="20" y2="40" gradientUnits="userSpaceOnUse">
<stop stop-color="#FF8D28"/>
<stop offset="1" stop-color="#FF8D28"/>
</linearGradient>
</defs>
</svg>
