<svg width="17" height="18" viewBox="0 0 17 18" fill="none" xmlns="http://www.w3.org/2000/svg">
<path fill-rule="evenodd" clip-rule="evenodd" d="M11.3003 3.95518C11.7805 4.23208 12.2131 4.5816 12.5821 4.99082C12.9459 5.39251 13.2379 5.85162 13.4456 6.34873C13.5621 6.63028 13.6546 6.92083 13.722 7.21738C13.8747 7.89163 13.8869 8.58918 13.7579 9.26817C13.6867 9.63422 13.5786 9.99243 13.4352 10.3375L13.4187 10.3741C13.1199 11.1065 12.5851 11.8155 12.0741 12.5157C11.8142 12.8702 11.5557 13.2203 11.3391 13.5602C11.2709 13.6659 11.1747 13.7514 11.0608 13.8077C10.9468 13.8639 10.8194 13.8888 10.6922 13.8795L6.58078 14.4786C6.41122 14.5028 6.2385 14.4654 6.09513 14.3734C5.95177 14.2814 5.84766 14.1411 5.80242 13.9791C5.7002 13.6863 5.57379 13.4021 5.42444 13.1295C5.30042 12.8951 5.15009 12.675 4.97625 12.4732C4.7641 12.2359 4.54747 11.9928 4.33234 11.7188C4.09235 11.4019 3.88516 11.0624 3.71383 10.7052C3.53367 10.3297 3.39349 9.93699 3.29552 9.5333C3.19828 9.12918 3.15064 8.71511 3.15359 8.2999C3.15792 7.8682 3.21663 7.43868 3.32839 7.02109C3.44774 6.5729 3.61865 6.13945 3.83783 5.7291L3.86771 5.67637C4.15022 5.20047 4.50887 4.77217 4.92993 4.40781C5.34812 4.04944 5.82424 3.76182 6.33876 3.55674L6.38208 3.54063C6.76655 3.39081 7.16772 3.28608 7.57727 3.22861C8.01036 3.169 8.44908 3.15917 8.8845 3.19932C9.30948 3.23723 9.72887 3.32124 10.135 3.44981C10.5416 3.57461 10.9325 3.74414 11.3003 3.95518ZM10.7206 16.7506C10.4953 17.1314 10.1731 17.4484 9.78537 17.6705C9.45756 17.8577 9.08979 17.9676 8.7112 17.9913C8.33081 18.0151 7.95059 17.9424 7.60715 17.7804C7.36119 17.6616 7.13943 17.4998 6.95278 17.3028L10.7206 16.7506ZM11.0792 14.6837V14.9254V15.0089C11.0904 15.1674 11.0904 15.3265 11.0792 15.485L11.0045 15.8336L6.43885 16.4986L6.35967 16.3199L6.18189 15.6051V15.3971L11.0672 14.6837H11.0792ZM8.38999 0.546485C8.3943 0.398319 8.45807 0.257808 8.56746 0.155494C8.67684 0.053181 8.82299 -0.00266433 8.97414 9.77917e-05H9.01298C9.15349 0.0123672 9.28464 0.0743238 9.38199 0.174414C9.48485 0.280685 9.54163 0.421953 9.54036 0.568457C9.54114 0.578208 9.54114 0.588004 9.54036 0.597754L9.50898 1.79746C9.50972 1.81015 9.50972 1.82286 9.50898 1.83555C9.49796 1.97736 9.43214 2.10969 9.32496 2.20552C9.21778 2.30135 9.07734 2.35345 8.93231 2.35117H8.89197C8.75196 2.34095 8.62089 2.27983 8.52445 2.17979C8.42096 2.07332 8.36411 1.93134 8.36609 1.78428C8.3653 1.77453 8.3653 1.76473 8.36609 1.75498L8.39597 0.550879L8.38999 0.546485ZM2.09137 2.65147C1.98098 2.54934 1.91559 2.40902 1.90911 2.26035C1.9057 2.1863 1.9173 2.11233 1.94322 2.0427C1.96915 1.97307 2.00889 1.90917 2.06015 1.85468C2.11141 1.8002 2.17317 1.75622 2.24187 1.72528C2.31056 1.69434 2.38483 1.67705 2.46038 1.67441C2.61168 1.66816 2.75937 1.72082 2.87123 1.8209L3.78853 2.66025C3.89955 2.76175 3.96515 2.90217 3.97102 3.05089C3.9769 3.19961 3.92258 3.34458 3.81991 3.4542C3.71529 3.56265 3.57163 3.62677 3.41952 3.63291C3.26868 3.63909 3.12149 3.58642 3.01017 3.48643L2.09137 2.65147ZM0.597391 8.83604C0.521649 8.83878 0.446098 8.82685 0.375059 8.80095C0.304021 8.77504 0.238888 8.73565 0.183386 8.68504C0.127884 8.63443 0.0831021 8.57359 0.0516006 8.506C0.0200992 8.4384 0.00249638 8.36538 -0.000201 8.29111C-0.00385284 8.2176 0.00747846 8.14412 0.0331304 8.07495C0.0587824 8.00578 0.0982402 7.94232 0.149197 7.88828C0.200758 7.83447 0.262697 7.79123 0.331425 7.76105C0.400153 7.73088 0.474305 7.71438 0.549584 7.7125L1.80154 7.67148C1.8773 7.66815 1.95299 7.67962 2.02419 7.70522C2.0954 7.73082 2.1607 7.77004 2.21631 7.82061C2.27191 7.87118 2.31671 7.93208 2.3481 7.99978C2.37948 8.06748 2.39683 8.14061 2.39913 8.21494V8.22373V8.24424C2.39758 8.38247 2.34443 8.51536 2.24973 8.61777C2.19709 8.67149 2.13402 8.71432 2.06423 8.74376C1.99444 8.77319 1.91934 8.78863 1.84337 8.78916H1.82096L0.583945 8.83018L0.597391 8.83604ZM16.3738 7.09434H16.3932C16.5364 7.08584 16.6777 7.13027 16.7891 7.21885C16.9066 7.31376 16.9817 7.44989 16.9983 7.59824C16.9983 7.59824 16.9983 7.61289 16.9983 7.61582C17.0052 7.75937 16.9558 7.90007 16.8602 8.00903C16.7646 8.11799 16.6302 8.18695 16.4844 8.20176L15.2384 8.34971C15.0873 8.36487 14.9362 8.32064 14.8183 8.22673C14.7004 8.13281 14.6253 7.99687 14.6094 7.84873C14.594 7.70033 14.6393 7.55198 14.7354 7.43633C14.8315 7.32068 14.9705 7.24719 15.1219 7.23203C15.5372 7.18809 15.9555 7.14121 16.3723 7.10166L16.3738 7.09434ZM13.9058 2.20469C13.9473 2.14325 14.0009 2.09049 14.0633 2.04946C14.1258 2.00843 14.196 1.97994 14.2697 1.96564C14.3435 1.95134 14.4194 1.95151 14.4931 1.96614C14.5668 1.98077 14.6368 2.00957 14.6991 2.05088C14.7614 2.09181 14.8147 2.1445 14.856 2.20587C14.8973 2.26724 14.9257 2.33605 14.9396 2.4083C14.9687 2.55443 14.9381 2.70592 14.8544 2.83018L14.1568 3.85557C14.0712 3.97911 13.939 4.06426 13.7894 4.09228C13.6398 4.1203 13.485 4.0889 13.359 4.00498C13.233 3.92106 13.1461 3.79151 13.1175 3.64481C13.089 3.49812 13.121 3.3463 13.2066 3.22275L13.9058 2.19736V2.20469ZM9.15192 8.04356H10.0319C10.0621 8.04356 10.092 8.04939 10.1199 8.06073C10.1478 8.07206 10.1732 8.08868 10.1946 8.10963C10.2159 8.13058 10.2329 8.15544 10.2444 8.18281C10.256 8.21018 10.2619 8.23952 10.2619 8.26914C10.2619 8.31396 10.2484 8.35777 10.2231 8.39512L8.13153 11.9005C8.11603 11.9259 8.09555 11.948 8.07127 11.9656C8.047 11.9832 8.01941 11.9959 7.99011 12.003C7.9608 12.0101 7.93035 12.0114 7.90052 12.0069C7.87069 12.0023 7.84207 11.9921 7.8163 11.9767C7.7755 11.9525 7.74328 11.9167 7.72403 11.8739C7.70478 11.8312 7.69944 11.7837 7.70874 11.7379L8.01799 9.5875L6.9722 9.60508C6.94206 9.60566 6.9121 9.60039 6.88404 9.58957C6.85599 9.57875 6.83039 9.5626 6.80873 9.54204C6.78706 9.52148 6.76976 9.49692 6.75782 9.46978C6.74588 9.44264 6.73953 9.41345 6.73914 9.38389C6.73783 9.34221 6.74871 9.30104 6.77052 9.26524L8.83072 5.76133C8.86209 5.71015 8.91277 5.67315 8.97177 5.65834C9.03077 5.64354 9.09335 5.65212 9.14595 5.68223C9.18641 5.7038 9.21923 5.73694 9.24004 5.77723C9.26085 5.81752 9.26868 5.86306 9.26248 5.90781L9.1579 8.04356H9.15192Z" fill="#FF8D28"/>
</svg>
