<svg width="40" height="40" viewBox="0 0 40 40" fill="none" xmlns="http://www.w3.org/2000/svg">
<rect width="40" height="40" rx="5" fill="#4ED9D5"/>
<g clip-path="url(#clip0_209_931)">
<path d="M9.38477 19.3166H10.7734V18.891C10.7734 18.3235 10.8594 17.7818 11.0156 17.2865C11.1777 16.7732 11.4141 16.3089 11.709 15.922C12.002 15.535 12.3535 15.2203 12.7422 15.0062C13.1172 14.7999 13.5273 14.6864 13.957 14.6864H19.4824V14.6503V12.0372C19.3926 11.9933 19.3066 11.9392 19.2246 11.8773C19.1094 11.787 19.0039 11.6786 18.9102 11.5548C18.7656 11.3639 18.6484 11.1343 18.5684 10.879C18.4922 10.6339 18.4492 10.3631 18.4492 10.0845C18.4492 9.80331 18.4922 9.53504 18.5684 9.28998C18.6484 9.03461 18.7656 8.80503 18.9102 8.61414C19.0547 8.42326 19.2285 8.26848 19.4219 8.16272C19.6074 8.05954 19.8125 8.00537 20.0234 8.00537C20.2344 8.00537 20.4395 8.06212 20.625 8.16272C20.8184 8.26848 20.9922 8.42326 21.1367 8.61414C21.2812 8.80503 21.3984 9.03461 21.4785 9.28998C21.5547 9.53504 21.5977 9.80589 21.5977 10.0845C21.5977 10.3656 21.5547 10.6339 21.4785 10.879C21.3984 11.1343 21.2812 11.3639 21.1367 11.5548L21.1289 11.5651C21.0371 11.6838 20.9336 11.7895 20.8223 11.8773C20.7402 11.9417 20.6543 11.9959 20.5645 12.0372V14.6503V14.6864H26.0898C26.5195 14.6864 26.9297 14.7999 27.3047 15.0062C27.6953 15.2203 28.0449 15.5325 28.3379 15.922C28.6309 16.3089 28.8691 16.7732 29.0312 17.2865C29.1875 17.7818 29.2734 18.3235 29.2734 18.891V19.3166H30.6133C30.7988 19.3166 30.9785 19.3656 31.1426 19.4559C31.3125 19.5488 31.4648 19.6855 31.5918 19.8532L31.5996 19.8635C31.7246 20.0312 31.8242 20.2272 31.8926 20.4465C31.9609 20.6632 31.998 20.8979 31.998 21.1455V26.026C31.998 26.2711 31.9609 26.5084 31.8926 26.7251C31.8223 26.9469 31.7188 27.1507 31.5918 27.3184C31.3418 27.6485 30.9941 27.8549 30.6133 27.8549H29.2715C29.2656 28.3992 29.1797 28.9228 29.0293 29.4C28.8672 29.9159 28.6309 30.3777 28.3359 30.7646C28.043 31.1515 27.6914 31.4662 27.3027 31.6804C26.9277 31.8867 26.5176 32.0002 26.0879 32.0002H13.957C13.5273 32.0002 13.1172 31.8867 12.7422 31.6804C12.3516 31.4662 12.002 31.1541 11.709 30.7646C11.416 30.3777 11.1777 29.9134 11.0156 29.4C10.8652 28.9228 10.7793 28.3992 10.7734 27.8549H9.38477C9.19922 27.8549 9.01953 27.8059 8.85547 27.7156C8.68555 27.6227 8.5332 27.486 8.40625 27.3184L8.39844 27.308C8.27344 27.1404 8.17383 26.9443 8.10547 26.7251C8.03711 26.5084 8 26.2711 8 26.026V21.1455C8 20.9005 8.03711 20.6632 8.10547 20.4465C8.17578 20.2221 8.2793 20.0208 8.40625 19.8532C8.5332 19.6855 8.68555 19.5488 8.85547 19.4559C9.01953 19.3656 9.19727 19.3166 9.38477 19.3166ZM17.1797 27.1662C17.1523 27.1378 17.1289 27.1068 17.1074 27.0707C17.043 26.9675 17.0098 26.8489 17.0078 26.7276C17.0059 26.6064 17.0352 26.4852 17.0957 26.3794C17.1172 26.3433 17.1406 26.3098 17.1699 26.2788C17.2715 26.1679 17.4062 26.1086 17.5391 26.106C17.6719 26.1034 17.8047 26.155 17.9102 26.2607C18.2734 26.6296 18.6328 26.8979 18.9883 27.0759C19.3398 27.2513 19.6875 27.3338 20.0312 27.3287C20.377 27.3235 20.7266 27.2281 21.084 27.0501C21.4453 26.8695 21.8086 26.5987 22.1777 26.2504C22.2871 26.1472 22.4219 26.1008 22.5547 26.1086C22.6875 26.1163 22.8203 26.1782 22.9199 26.2943C22.9453 26.3252 22.9688 26.3588 22.9902 26.3975C23.0488 26.5058 23.0762 26.6296 23.0703 26.7509C23.0645 26.8721 23.0273 26.9908 22.9609 27.0914C22.9375 27.1249 22.9102 27.1584 22.8789 27.1868C22.416 27.6279 21.9512 27.9632 21.4805 28.1928C21.0078 28.4224 20.5293 28.5436 20.0449 28.5514C19.5586 28.5591 19.0781 28.4508 18.5996 28.2212C18.125 27.9942 17.6523 27.646 17.1875 27.1739L17.1797 27.1662ZM15.9629 19.2779C16.0801 19.2779 16.1973 19.2934 16.3086 19.3244C16.4219 19.3553 16.5332 19.3992 16.6406 19.4585C16.75 19.5178 16.8535 19.5901 16.9492 19.6752C17.043 19.7577 17.1309 19.8506 17.209 19.9538L17.2207 19.9667C17.3027 20.075 17.377 20.1937 17.4414 20.3227L17.4453 20.3304C17.5078 20.4542 17.5625 20.5883 17.6055 20.7302C17.6504 20.8721 17.6836 21.0191 17.707 21.1687C17.7285 21.3184 17.7422 21.4705 17.7422 21.6253C17.7422 21.7801 17.7305 21.9349 17.707 22.0819C17.6836 22.2315 17.6504 22.3785 17.6055 22.523C17.5605 22.6675 17.5059 22.8042 17.4414 22.9306C17.375 23.0621 17.3008 23.1808 17.2207 23.2865C17.0586 23.5006 16.8613 23.6761 16.6406 23.7947C16.5332 23.854 16.4219 23.8979 16.3066 23.9288C16.1934 23.9572 16.0781 23.9727 15.9609 23.9727C15.8437 23.9727 15.7266 23.9572 15.6152 23.9288C15.502 23.8979 15.3906 23.854 15.2812 23.7947C15.1719 23.7354 15.0684 23.6632 14.9727 23.578C14.873 23.4903 14.7832 23.3923 14.7031 23.2865C14.6211 23.1782 14.5469 23.0595 14.4824 22.9306L14.4785 22.9228C14.416 22.799 14.3613 22.6649 14.3184 22.523C14.2734 22.3811 14.2402 22.2341 14.2168 22.0845C14.1953 21.9349 14.1836 21.7827 14.1836 21.6279C14.1836 21.4731 14.1953 21.3184 14.2168 21.1713C14.2402 21.0217 14.2734 20.8747 14.3184 20.7328C14.3633 20.5883 14.418 20.4516 14.4824 20.3252C14.5488 20.1937 14.623 20.075 14.7031 19.9693C14.7852 19.8609 14.875 19.7629 14.9727 19.6778L14.9785 19.6726C15.0723 19.5901 15.1738 19.5178 15.2812 19.4611C15.3887 19.4018 15.5 19.3579 15.6133 19.327C15.7285 19.2934 15.8457 19.2779 15.9629 19.2779ZM16.3457 20.4078C16.2871 20.3768 16.2246 20.351 16.1602 20.333C16.0977 20.3175 16.0312 20.3072 15.9629 20.3072C15.8945 20.3072 15.8281 20.3149 15.7656 20.333C15.6992 20.351 15.6367 20.3742 15.5801 20.4078C15.5195 20.4413 15.4629 20.48 15.4082 20.529C15.3555 20.5754 15.3047 20.6322 15.2559 20.6967C15.207 20.7612 15.166 20.8282 15.1289 20.8979C15.0918 20.9701 15.0625 21.0449 15.0371 21.1223C15.0137 21.1997 14.9941 21.2822 14.9805 21.3674C14.9688 21.4499 14.9609 21.5376 14.9609 21.6279C14.9609 21.7182 14.9668 21.8059 14.9805 21.8884C14.9941 21.9761 15.0117 22.0587 15.0371 22.1335C15.0625 22.2135 15.0918 22.2883 15.1289 22.3579C15.1641 22.4276 15.207 22.4946 15.2559 22.5591C15.3047 22.6236 15.3555 22.6778 15.4082 22.7268C15.4609 22.7732 15.5195 22.8145 15.5801 22.848L15.5859 22.8532C15.6426 22.8841 15.7012 22.9073 15.7656 22.9228C15.8281 22.9383 15.8945 22.9486 15.9629 22.9486C16.0312 22.9486 16.0977 22.9409 16.1602 22.9228C16.2266 22.9048 16.2871 22.8816 16.3457 22.8506C16.4062 22.8171 16.4629 22.7758 16.5176 22.7294C16.5703 22.6829 16.6211 22.6262 16.6699 22.5617C16.7188 22.4972 16.7598 22.4301 16.7969 22.3605C16.834 22.2883 16.8633 22.2135 16.8887 22.1361C16.9121 22.0587 16.9316 21.9761 16.9453 21.891C16.957 21.8085 16.9648 21.7208 16.9648 21.6305C16.9648 21.5402 16.959 21.4525 16.9453 21.3699C16.9316 21.2822 16.9141 21.1997 16.8887 21.1249C16.8633 21.0449 16.834 20.9701 16.7969 20.8979C16.7598 20.8257 16.7188 20.7586 16.6719 20.6967L16.6621 20.6838C16.6172 20.627 16.5703 20.5754 16.5195 20.5316C16.4648 20.48 16.4062 20.4387 16.3457 20.4078ZM24.084 19.2779C24.2012 19.2779 24.3184 19.2934 24.4297 19.3244C24.543 19.3553 24.6543 19.3992 24.7617 19.4585C24.8711 19.5178 24.9746 19.5901 25.0703 19.6752C25.1621 19.7577 25.248 19.848 25.3262 19.9512C25.3301 19.9564 25.3359 19.9615 25.3398 19.9667C25.4219 20.075 25.4961 20.1937 25.5605 20.3227L25.5645 20.3304C25.627 20.4542 25.6816 20.5883 25.7246 20.7302C25.7695 20.8721 25.8027 21.0191 25.8262 21.1687C25.8477 21.3184 25.8594 21.4705 25.8594 21.6253C25.8594 21.7801 25.8477 21.9349 25.8262 22.0819C25.8027 22.2315 25.7695 22.3785 25.7246 22.523C25.6797 22.6675 25.625 22.8042 25.5605 22.9306C25.4941 23.0621 25.4199 23.1808 25.3398 23.2865C25.2578 23.3949 25.168 23.4929 25.0703 23.578L25.0645 23.5832C24.9688 23.6657 24.8691 23.738 24.7617 23.7947C24.6543 23.854 24.543 23.8979 24.4277 23.9288C24.3145 23.9572 24.1992 23.9727 24.082 23.9727C23.9648 23.9727 23.8477 23.9572 23.7363 23.9288C23.623 23.8979 23.5117 23.854 23.4023 23.7947C23.291 23.7328 23.1875 23.6606 23.0938 23.578L23.084 23.5677C22.9902 23.4826 22.9023 23.3897 22.8242 23.2865C22.7422 23.1782 22.668 23.0595 22.6035 22.9306L22.5996 22.9228C22.5371 22.799 22.4824 22.6649 22.4395 22.523C22.3945 22.3811 22.3613 22.2341 22.3379 22.0845C22.3164 21.9349 22.3027 21.7827 22.3027 21.6279C22.3027 21.4731 22.3145 21.3184 22.3379 21.1713C22.3613 21.0217 22.3945 20.8747 22.4395 20.7328C22.4844 20.5883 22.5391 20.4516 22.6035 20.3252C22.6699 20.1937 22.7441 20.075 22.8242 19.9693C22.9043 19.8635 22.9961 19.7655 23.0938 19.6778C23.1895 19.5926 23.293 19.5204 23.4023 19.4585C23.5098 19.3992 23.6211 19.3553 23.7344 19.3244C23.8516 19.2934 23.9668 19.2779 24.084 19.2779ZM24.4688 20.4078C24.4102 20.3768 24.3477 20.351 24.2832 20.333C24.2207 20.3175 24.1543 20.3072 24.0859 20.3072C24.0176 20.3072 23.9512 20.3149 23.8887 20.333C23.8223 20.351 23.7598 20.3742 23.7031 20.4078C23.6426 20.4413 23.5859 20.48 23.5312 20.529C23.4785 20.5754 23.4277 20.6322 23.3789 20.6967C23.3301 20.7612 23.2891 20.8282 23.252 20.8979C23.2148 20.9701 23.1855 21.0449 23.1602 21.1223C23.1367 21.1997 23.1172 21.2822 23.1035 21.3674C23.0918 21.4499 23.084 21.5376 23.084 21.6279C23.084 21.7182 23.0898 21.8059 23.1035 21.8884C23.1172 21.9761 23.1348 22.0587 23.1602 22.1335C23.1855 22.2135 23.2148 22.2883 23.252 22.3579C23.2871 22.4276 23.3301 22.4946 23.3789 22.5591C23.4277 22.6236 23.4785 22.6778 23.5312 22.7268C23.584 22.7732 23.6426 22.8145 23.7031 22.848L23.709 22.8532C23.7656 22.8841 23.8242 22.9073 23.8887 22.9228C23.9512 22.9383 24.0176 22.9486 24.0859 22.9486C24.1543 22.9486 24.2207 22.9409 24.2832 22.9228C24.3496 22.9048 24.4102 22.8816 24.4688 22.8506C24.5293 22.8171 24.5859 22.7758 24.6406 22.7294C24.6953 22.6803 24.7461 22.6262 24.793 22.5643C24.8418 22.4998 24.8828 22.4327 24.9199 22.3631C24.957 22.2908 24.9863 22.216 25.0117 22.1386C25.0352 22.0613 25.0547 21.9787 25.0684 21.8936C25.0801 21.811 25.0879 21.7233 25.0879 21.6331C25.0879 21.5428 25.082 21.4551 25.0684 21.3725C25.0547 21.2848 25.0371 21.2023 25.0117 21.1275C24.9863 21.0475 24.957 20.9727 24.9199 20.9005C24.8828 20.8282 24.8418 20.7612 24.7949 20.6993L24.7852 20.6864C24.7402 20.6296 24.6934 20.578 24.6426 20.5342C24.5859 20.48 24.5293 20.4387 24.4688 20.4078ZM11.5527 19.8325V27.7956C11.5527 28.2238 11.6172 28.6313 11.7344 29.0054C11.8574 29.3923 12.0352 29.7431 12.2578 30.0372C12.4805 30.3313 12.7461 30.5686 13.0391 30.7285C13.3203 30.8833 13.6309 30.9684 13.9551 30.9684H26.0898C26.4141 30.9684 26.7227 30.8833 27.0059 30.7285C27.2988 30.566 27.5645 30.3313 27.7871 30.0372C28.0098 29.7431 28.1895 29.3923 28.3105 29.0054C28.4277 28.6339 28.4922 28.2238 28.4922 27.7956V18.891C28.4922 18.4628 28.4277 18.0527 28.3105 17.6812C28.1875 17.2943 28.0098 16.9435 27.7871 16.6494C27.5645 16.3553 27.2988 16.118 27.0059 15.9581C26.7246 15.8033 26.4141 15.7182 26.0898 15.7182H13.957C13.6328 15.7182 13.3242 15.8033 13.041 15.9581C12.748 16.1206 12.4824 16.3553 12.2598 16.6494C12.0371 16.9435 11.8574 17.2943 11.7363 17.6812C11.6191 18.0527 11.5547 18.4628 11.5547 18.891V19.8325H11.5527ZM10.7734 20.3459H9.38477C9.30273 20.3459 9.22461 20.3665 9.1543 20.4052C9.08008 20.4465 9.01367 20.5058 8.95703 20.5806L8.94922 20.5883C8.89648 20.6606 8.85352 20.7457 8.82422 20.8386C8.79492 20.9314 8.7793 21.0346 8.7793 21.1429V26.0234C8.7793 26.1318 8.79492 26.235 8.82422 26.3278C8.85547 26.4258 8.90039 26.5135 8.95703 26.5883C9.06641 26.7328 9.2168 26.8231 9.38281 26.8231H10.7715V20.3459H10.7734ZM30.6152 20.3459H29.2754V26.8231H30.6152C30.6973 26.8231 30.7754 26.8024 30.8457 26.7638C30.9199 26.7225 30.9863 26.6632 31.043 26.5883C31.0996 26.5135 31.1445 26.4258 31.1758 26.3278C31.2051 26.235 31.2207 26.1318 31.2207 26.0234V21.1455C31.2207 21.0372 31.2051 20.934 31.1758 20.8411C31.1445 20.7431 31.0996 20.6554 31.043 20.5806C30.9863 20.5058 30.9199 20.4465 30.8457 20.4052C30.7754 20.3691 30.6973 20.3459 30.6152 20.3459Z" fill="white"/>
</g>
<defs>
<clipPath id="clip0_209_931">
<rect width="24" height="24" fill="white" transform="translate(8 8)"/>
</clipPath>
</defs>
</svg>
