<svg width="40" height="40" viewBox="0 0 40 40" fill="none" xmlns="http://www.w3.org/2000/svg">
<rect width="40" height="40" rx="5" fill="#FFCC00"/>
<path d="M11 29C11 29.5523 11.4477 30 12 30C12.5523 30 13 29.5523 13 29H12H11ZM19.8584 23.0608C20.4051 23.139 20.9117 22.7592 20.9899 22.2125C21.0681 21.6658 20.6883 21.1592 20.1416 21.081L20 22.0709L19.8584 23.0608ZM25.29 25.2929C24.8994 25.6834 24.8994 26.3166 25.29 26.7071C25.6805 27.0976 26.3137 27.0976 26.7042 26.7071L25.9971 26L25.29 25.2929ZM23.0916 22.7507C22.954 23.2856 23.2759 23.8308 23.8108 23.9684C24.3457 24.1061 24.8908 23.7841 25.0285 23.2493L24.0601 23L23.0916 22.7507ZM25.9971 28C25.4448 28 24.9971 28.4477 24.9971 29C24.9971 29.5523 25.4448 30 25.9971 30V29V28ZM26.0071 30C26.5594 30 27.0071 29.5523 27.0071 29C27.0071 28.4477 26.5594 28 26.0071 28V29V30ZM23 15H22C22 16.6569 20.6569 18 19 18V19V20C21.7614 20 24 17.7614 24 15H23ZM19 19V18C17.3431 18 16 16.6569 16 15H15H14C14 17.7614 16.2386 20 19 20V19ZM15 15H16C16 13.3431 17.3431 12 19 12V11V10C16.2386 10 14 12.2386 14 15H15ZM19 11V12C20.6569 12 22 13.3431 22 15H23H24C24 12.2386 21.7614 10 19 10V11ZM12 29H13C13 25.6863 15.6863 23 19 23V22V21C14.5817 21 11 24.5817 11 29H12ZM19 22V23C19.292 23 19.5786 23.0208 19.8584 23.0608L20 22.0709L20.1416 21.081C19.7682 21.0276 19.387 21 19 21V22ZM27.997 23.5H26.997C26.997 23.6732 26.9516 23.8053 26.6776 24.0697C26.5239 24.218 26.3429 24.3653 26.0919 24.574C25.8536 24.7723 25.5741 25.0087 25.29 25.2929L25.9971 26L26.7042 26.7071C26.92 26.4913 27.1405 26.3033 27.3709 26.1116C27.5887 25.9305 27.8452 25.7223 28.0665 25.5087C28.5426 25.0493 28.997 24.4314 28.997 23.5H27.997ZM25.997 21.5V22.5C26.5493 22.5 26.997 22.9477 26.997 23.5H27.997H28.997C28.997 21.8431 27.6539 20.5 25.997 20.5V21.5ZM24.0601 23L25.0285 23.2493C25.1396 22.8177 25.5325 22.5 25.997 22.5V21.5V20.5C24.5978 20.5 23.4246 21.457 23.0916 22.7507L24.0601 23ZM25.9971 29V30H26.0071V29V28H25.9971V29Z" fill="white"/>
</svg>
