<svg width="32" height="32" viewBox="0 0 32 32" fill="none" xmlns="http://www.w3.org/2000/svg">
<path fill-rule="evenodd" clip-rule="evenodd" d="M9.33332 5.99984C9.33332 4.15889 10.8257 2.6665 12.6667 2.6665C14.5076 2.6665 16 4.15889 16 5.99984C16 6.42974 15.9186 6.84064 15.7704 7.21796L18.1152 9.56276C18.4925 9.41456 18.9034 9.33317 19.3333 9.33317C19.7632 9.33317 20.1741 9.41456 20.5514 9.56276L22.8962 7.21796C22.748 6.84064 22.6667 6.42974 22.6667 5.99984C22.6667 4.15889 24.159 2.6665 26 2.6665C27.8409 2.6665 29.3333 4.15889 29.3333 5.99984C29.3333 7.84079 27.8409 9.33317 26 9.33317C25.5701 9.33317 25.1592 9.25178 24.7819 9.10358L22.4371 11.4484C22.5853 11.8257 22.6667 12.2366 22.6667 12.6665C22.6667 14.5075 21.1743 15.9998 19.3333 15.9998C17.4924 15.9998 16 14.5075 16 12.6665C16 12.2366 16.0814 11.8257 16.2296 11.4484L13.8848 9.10358C13.5075 9.25178 13.0966 9.33317 12.6667 9.33317C12.2367 9.33317 11.8259 9.25178 11.4485 9.10358L9.10373 11.4484C9.25194 11.8257 9.33332 12.2366 9.33332 12.6665C9.33332 14.5075 7.84094 15.9998 5.99999 15.9998C4.15904 15.9998 2.66666 14.5075 2.66666 12.6665C2.66666 10.8256 4.15904 9.33317 5.99999 9.33317C6.4299 9.33317 6.84079 9.41456 7.21812 9.56276L9.56291 7.21796C9.41471 6.84064 9.33332 6.42974 9.33332 5.99984ZM28 13.3332C28.7364 13.3332 29.3333 13.9301 29.3333 14.6665V27.9998C29.3333 28.7362 28.7364 29.3332 28 29.3332C27.2636 29.3332 26.6667 28.7362 26.6667 27.9998V14.6665C26.6667 13.9301 27.2636 13.3332 28 13.3332ZM12 15.9998C12.7364 15.9998 13.3333 16.5968 13.3333 17.3332V27.9998C13.3333 28.7362 12.7364 29.3332 12 29.3332C11.2636 29.3332 10.6667 28.7362 10.6667 27.9998V17.3332C10.6667 16.5968 11.2636 15.9998 12 15.9998ZM20 18.6665C20.7364 18.6665 21.3333 19.2635 21.3333 19.9998V27.9998C21.3333 28.7362 20.7364 29.3332 20 29.3332C19.2636 29.3332 18.6667 28.7362 18.6667 27.9998V19.9998C18.6667 19.2635 19.2636 18.6665 20 18.6665ZM3.99999 21.3332C4.73637 21.3332 5.33332 21.9301 5.33332 22.6665V27.9998C5.33332 28.7362 4.73637 29.3332 3.99999 29.3332C3.26361 29.3332 2.66666 28.7362 2.66666 27.9998V22.6665C2.66666 21.9301 3.26361 21.3332 3.99999 21.3332Z" fill="#6155F5"/>
</svg>
