<svg width="40" height="40" viewBox="0 0 40 40" fill="none" xmlns="http://www.w3.org/2000/svg">
<rect width="40" height="40" rx="5" fill="#437EF4"/>
<path d="M21 11H16.2C15.0799 11 14.5198 11 14.092 11.218C13.7157 11.4097 13.4097 11.7157 13.218 12.092C13 12.5198 13 13.0799 13 14.2V25.8C13 26.9201 13 27.4802 13.218 27.908C13.4097 28.2843 13.7157 28.5903 14.092 28.782C14.5198 29 15.0799 29 16.2 29H18M21 11L27 17M21 11V15.4C21 15.9601 21 16.2401 21.109 16.454C21.2049 16.6422 21.3578 16.7951 21.546 16.891C21.7599 17 22.0399 17 22.6 17H27M27 17V18M17 25H19.5M17 21H22M17 17H18M22 29L24.025 28.595C24.2015 28.5597 24.2898 28.542 24.3721 28.5097C24.4452 28.4811 24.5147 28.4439 24.579 28.399C24.6516 28.3484 24.7152 28.2848 24.8426 28.1574L29 24C29.5523 23.4477 29.5523 22.5523 29 22C28.4477 21.4477 27.5523 21.4477 27 22L22.8426 26.1574C22.7152 26.2848 22.6516 26.3484 22.601 26.421C22.5561 26.4853 22.5189 26.5548 22.4903 26.6279C22.458 26.7102 22.4403 26.7985 22.405 26.975L22 29Z" stroke="white" stroke-width="2" stroke-linecap="round" stroke-linejoin="round"/>
</svg>
