<svg width="70" height="40" viewBox="0 0 70 40" fill="none" xmlns="http://www.w3.org/2000/svg">
<path d="M32.5 2.5H37.5M27.5 5H42.5M40.8333 5L40.2489 13.7661C40.1612 15.0813 40.1174 15.7389 39.8333 16.2375C39.5833 16.6765 39.206 17.0294 38.7514 17.2497C38.235 17.5 37.5759 17.5 36.2578 17.5H33.7422C32.4241 17.5 31.765 17.5 31.2486 17.2497C30.794 17.0294 30.4167 16.6765 30.1667 16.2375C29.8826 15.7389 29.8388 15.0813 29.7511 13.7661L29.1667 5M33.3333 8.75V12.9167M36.6667 8.75V12.9167" stroke="#EF4444" stroke-width="2" stroke-linecap="round" stroke-linejoin="round"/>
<path d="M13.94 36V25.57H17.37C18.406 25.57 19.3067 25.7847 20.072 26.214C20.8373 26.634 21.43 27.236 21.85 28.02C22.27 28.7947 22.48 29.714 22.48 30.778C22.48 31.8327 22.27 32.752 21.85 33.536C21.43 34.32 20.8373 34.9267 20.072 35.356C19.3067 35.7853 18.406 36 17.37 36H13.94ZM15.06 34.95H17.37C18.1727 34.95 18.868 34.782 19.456 34.446C20.044 34.1007 20.4967 33.6153 20.814 32.99C21.1407 32.3647 21.304 31.6273 21.304 30.778C21.304 29.9287 21.1407 29.196 20.814 28.58C20.4873 27.9547 20.03 27.474 19.442 27.138C18.854 26.7927 18.1633 26.62 17.37 26.62H15.06V34.95ZM27.5926 36.168C26.8926 36.168 26.258 36 25.6886 35.664C25.1286 35.3187 24.6853 34.8473 24.3586 34.25C24.032 33.6527 23.8686 32.976 23.8686 32.22C23.8686 31.464 24.0273 30.7967 24.3446 30.218C24.662 29.63 25.0913 29.168 25.6326 28.832C26.1833 28.496 26.7993 28.328 27.4806 28.328C28.022 28.328 28.5026 28.4307 28.9226 28.636C29.352 28.832 29.716 29.1027 30.0146 29.448C30.3133 29.784 30.542 30.1667 30.7006 30.596C30.8593 31.016 30.9386 31.45 30.9386 31.898C30.9386 31.9913 30.934 32.0987 30.9246 32.22C30.9153 32.332 30.9013 32.4487 30.8826 32.57H24.5406V31.59H30.2806L29.7766 32.01C29.8606 31.4967 29.8 31.0393 29.5946 30.638C29.3986 30.2273 29.114 29.9053 28.7406 29.672C28.3673 29.4293 27.9473 29.308 27.4806 29.308C27.014 29.308 26.58 29.4293 26.1786 29.672C25.7866 29.9147 25.4786 30.2553 25.2546 30.694C25.0306 31.1233 24.942 31.6367 24.9886 32.234C24.942 32.8313 25.0353 33.354 25.2686 33.802C25.5113 34.2407 25.838 34.5813 26.2486 34.824C26.6686 35.0667 27.1166 35.188 27.5926 35.188C28.1433 35.188 28.6053 35.0573 28.9786 34.796C29.352 34.5347 29.6553 34.208 29.8886 33.816L30.7846 34.292C30.6353 34.628 30.4066 34.9407 30.0986 35.23C29.7906 35.51 29.422 35.7387 28.9926 35.916C28.5726 36.084 28.106 36.168 27.5926 36.168ZM32.7899 36V25.402H33.8399V36H32.7899ZM39.4051 36.168C38.7051 36.168 38.0705 36 37.5011 35.664C36.9411 35.3187 36.4978 34.8473 36.1711 34.25C35.8445 33.6527 35.6811 32.976 35.6811 32.22C35.6811 31.464 35.8398 30.7967 36.1571 30.218C36.4745 29.63 36.9038 29.168 37.4451 28.832C37.9958 28.496 38.6118 28.328 39.2931 28.328C39.8345 28.328 40.3151 28.4307 40.7351 28.636C41.1645 28.832 41.5285 29.1027 41.8271 29.448C42.1258 29.784 42.3545 30.1667 42.5131 30.596C42.6718 31.016 42.7511 31.45 42.7511 31.898C42.7511 31.9913 42.7465 32.0987 42.7371 32.22C42.7278 32.332 42.7138 32.4487 42.6951 32.57H36.3531V31.59H42.0931L41.5891 32.01C41.6731 31.4967 41.6125 31.0393 41.4071 30.638C41.2111 30.2273 40.9265 29.9053 40.5531 29.672C40.1798 29.4293 39.7598 29.308 39.2931 29.308C38.8265 29.308 38.3925 29.4293 37.9911 29.672C37.5991 29.9147 37.2911 30.2553 37.0671 30.694C36.8431 31.1233 36.7545 31.6367 36.8011 32.234C36.7545 32.8313 36.8478 33.354 37.0811 33.802C37.3238 34.2407 37.6505 34.5813 38.0611 34.824C38.4811 35.0667 38.9291 35.188 39.4051 35.188C39.9558 35.188 40.4178 35.0573 40.7911 34.796C41.1645 34.5347 41.4678 34.208 41.7011 33.816L42.5971 34.292C42.4478 34.628 42.2191 34.9407 41.9111 35.23C41.6031 35.51 41.2345 35.7387 40.8051 35.916C40.3851 36.084 39.9185 36.168 39.4051 36.168ZM47.4724 36.084C46.8004 36.084 46.2824 35.888 45.9184 35.496C45.5544 35.104 45.3724 34.544 45.3724 33.816V29.546H43.9864V28.496H44.3364C44.6537 28.496 44.9057 28.3933 45.0924 28.188C45.2791 27.9733 45.3724 27.7073 45.3724 27.39V26.76H46.4224V28.496H48.0744V29.546H46.4224V33.816C46.4224 34.068 46.4597 34.292 46.5344 34.488C46.6091 34.6747 46.7351 34.824 46.9124 34.936C47.0991 35.048 47.3464 35.104 47.6544 35.104C47.7291 35.104 47.8177 35.0993 47.9204 35.09C48.0231 35.0807 48.1117 35.0713 48.1864 35.062V36C48.0744 36.028 47.9484 36.0467 47.8084 36.056C47.6684 36.0747 47.5564 36.084 47.4724 36.084ZM53.1727 36.168C52.4727 36.168 51.838 36 51.2687 35.664C50.7087 35.3187 50.2654 34.8473 49.9387 34.25C49.612 33.6527 49.4487 32.976 49.4487 32.22C49.4487 31.464 49.6074 30.7967 49.9247 30.218C50.242 29.63 50.6714 29.168 51.2127 28.832C51.7634 28.496 52.3794 28.328 53.0607 28.328C53.602 28.328 54.0827 28.4307 54.5027 28.636C54.932 28.832 55.296 29.1027 55.5947 29.448C55.8934 29.784 56.122 30.1667 56.2807 30.596C56.4394 31.016 56.5187 31.45 56.5187 31.898C56.5187 31.9913 56.514 32.0987 56.5047 32.22C56.4954 32.332 56.4814 32.4487 56.4627 32.57H50.1207V31.59H55.8607L55.3567 32.01C55.4407 31.4967 55.38 31.0393 55.1747 30.638C54.9787 30.2273 54.694 29.9053 54.3207 29.672C53.9474 29.4293 53.5274 29.308 53.0607 29.308C52.594 29.308 52.16 29.4293 51.7587 29.672C51.3667 29.9147 51.0587 30.2553 50.8347 30.694C50.6107 31.1233 50.522 31.6367 50.5687 32.234C50.522 32.8313 50.6154 33.354 50.8487 33.802C51.0914 34.2407 51.418 34.5813 51.8287 34.824C52.2487 35.0667 52.6967 35.188 53.1727 35.188C53.7234 35.188 54.1854 35.0573 54.5587 34.796C54.932 34.5347 55.2354 34.208 55.4687 33.816L56.3647 34.292C56.2154 34.628 55.9867 34.9407 55.6787 35.23C55.3707 35.51 55.002 35.7387 54.5727 35.916C54.1527 36.084 53.686 36.168 53.1727 36.168Z" fill="#EF4444"/>
</svg>
