<svg width="70" height="40" viewBox="0 0 70 40" fill="none" xmlns="http://www.w3.org/2000/svg">
<path d="M42.5 12.5V13.5C42.5 14.9001 42.5 15.6002 42.2275 16.135C41.9878 16.6054 41.6054 16.9878 41.135 17.2275C40.6002 17.5 39.9001 17.5 38.5 17.5H31.5C30.0999 17.5 29.3998 17.5 28.865 17.2275C28.3946 16.9878 28.0122 16.6054 27.7725 16.135C27.5 15.6002 27.5 14.9001 27.5 13.5V12.5M39.1667 8.33333L35 12.5M35 12.5L30.8333 8.33333M35 12.5V2.5" stroke="#2563EB" stroke-width="2" stroke-linecap="round" stroke-linejoin="round"/>
<path d="M1.232 36V25.57H4.662C5.698 25.57 6.59867 25.7847 7.364 26.214C8.12933 26.634 8.722 27.236 9.142 28.02C9.562 28.7947 9.772 29.714 9.772 30.778C9.772 31.8327 9.562 32.752 9.142 33.536C8.722 34.32 8.12933 34.9267 7.364 35.356C6.59867 35.7853 5.698 36 4.662 36H1.232ZM2.352 34.95H4.662C5.46467 34.95 6.16 34.782 6.748 34.446C7.336 34.1007 7.78867 33.6153 8.106 32.99C8.43267 32.3647 8.596 31.6273 8.596 30.778C8.596 29.9287 8.43267 29.196 8.106 28.58C7.77933 27.9547 7.322 27.474 6.734 27.138C6.146 26.7927 5.45533 26.62 4.662 26.62H2.352V34.95ZM14.9826 36.168C14.2733 36.168 13.6293 36 13.0506 35.664C12.472 35.3187 12.01 34.852 11.6646 34.264C11.3286 33.6667 11.1606 32.99 11.1606 32.234C11.1606 31.4873 11.3286 30.82 11.6646 30.232C12.0006 29.644 12.4533 29.182 13.0226 28.846C13.6013 28.5007 14.2546 28.328 14.9826 28.328C15.7106 28.328 16.3593 28.496 16.9286 28.832C17.5073 29.168 17.96 29.63 18.2866 30.218C18.6226 30.806 18.7906 31.478 18.7906 32.234C18.7906 32.9993 18.618 33.6807 18.2726 34.278C17.9273 34.866 17.4653 35.328 16.8866 35.664C16.3173 36 15.6826 36.168 14.9826 36.168ZM14.9826 35.118C15.4866 35.118 15.9393 34.992 16.3406 34.74C16.7513 34.488 17.0733 34.1427 17.3066 33.704C17.5493 33.2653 17.6706 32.7753 17.6706 32.234C17.6706 31.6927 17.5493 31.2073 17.3066 30.778C17.0733 30.3487 16.7513 30.008 16.3406 29.756C15.9393 29.504 15.4866 29.378 14.9826 29.378C14.4786 29.378 14.0213 29.504 13.6106 29.756C13.2093 30.008 12.8873 30.3487 12.6446 30.778C12.402 31.2073 12.2806 31.6927 12.2806 32.234C12.2806 32.7753 12.402 33.2653 12.6446 33.704C12.8873 34.1427 13.2093 34.488 13.6106 34.74C14.0213 34.992 14.4786 35.118 14.9826 35.118ZM22.1577 36L19.5817 28.496H20.7717L22.8997 35.062H22.4797L24.4817 28.496H25.5317L27.5337 35.062H27.1137L29.2557 28.496H30.4317L27.8557 36H26.8057L24.8597 29.574H25.1537L23.2077 36H22.1577ZM31.662 36V28.496H32.712V29.952L32.474 29.896C32.6607 29.4107 32.964 29.028 33.384 28.748C33.8133 28.468 34.308 28.328 34.868 28.328C35.4 28.328 35.876 28.4493 36.296 28.692C36.7253 28.9347 37.0613 29.2707 37.304 29.7C37.556 30.12 37.682 30.596 37.682 31.128V36H36.632V31.534C36.632 31.0767 36.548 30.6893 36.38 30.372C36.2213 30.0547 35.9927 29.812 35.694 29.644C35.4047 29.4667 35.0687 29.378 34.686 29.378C34.3033 29.378 33.9627 29.4667 33.664 29.644C33.3653 29.812 33.132 30.0593 32.964 30.386C32.796 30.7033 32.712 31.086 32.712 31.534V36H31.662ZM39.6874 36V25.402H40.7374V36H39.6874ZM46.4006 36.168C45.6913 36.168 45.0473 36 44.4686 35.664C43.8899 35.3187 43.4279 34.852 43.0826 34.264C42.7466 33.6667 42.5786 32.99 42.5786 32.234C42.5786 31.4873 42.7466 30.82 43.0826 30.232C43.4186 29.644 43.8713 29.182 44.4406 28.846C45.0193 28.5007 45.6726 28.328 46.4006 28.328C47.1286 28.328 47.7773 28.496 48.3466 28.832C48.9253 29.168 49.3779 29.63 49.7046 30.218C50.0406 30.806 50.2086 31.478 50.2086 32.234C50.2086 32.9993 50.0359 33.6807 49.6906 34.278C49.3453 34.866 48.8833 35.328 48.3046 35.664C47.7353 36 47.1006 36.168 46.4006 36.168ZM46.4006 35.118C46.9046 35.118 47.3573 34.992 47.7586 34.74C48.1693 34.488 48.4913 34.1427 48.7246 33.704C48.9673 33.2653 49.0886 32.7753 49.0886 32.234C49.0886 31.6927 48.9673 31.2073 48.7246 30.778C48.4913 30.3487 48.1693 30.008 47.7586 29.756C47.3573 29.504 46.9046 29.378 46.4006 29.378C45.8966 29.378 45.4393 29.504 45.0286 29.756C44.6273 30.008 44.3053 30.3487 44.0626 30.778C43.8199 31.2073 43.6986 31.6927 43.6986 32.234C43.6986 32.7753 43.8199 33.2653 44.0626 33.704C44.3053 34.1427 44.6273 34.488 45.0286 34.74C45.4393 34.992 45.8966 35.118 46.4006 35.118ZM54.2304 36.168C53.7544 36.168 53.3298 36.0793 52.9564 35.902C52.5831 35.7153 52.2891 35.4633 52.0744 35.146C51.8598 34.8287 51.7524 34.4647 51.7524 34.054C51.7524 33.662 51.8364 33.3073 52.0044 32.99C52.1724 32.6633 52.4338 32.388 52.7884 32.164C53.1431 31.94 53.5958 31.7813 54.1464 31.688L57.0864 31.198V32.15L54.3984 32.598C53.8571 32.6913 53.4651 32.864 53.2224 33.116C52.9891 33.368 52.8724 33.6667 52.8724 34.012C52.8724 34.348 53.0031 34.6327 53.2644 34.866C53.5351 35.0993 53.8804 35.216 54.3004 35.216C54.8138 35.216 55.2618 35.1087 55.6444 34.894C56.0271 34.67 56.3258 34.3713 56.5404 33.998C56.7551 33.6247 56.8624 33.2093 56.8624 32.752V30.848C56.8624 30.4 56.6991 30.036 56.3724 29.756C56.0458 29.476 55.6211 29.336 55.0984 29.336C54.6411 29.336 54.2398 29.4527 53.8944 29.686C53.5491 29.91 53.2924 30.204 53.1244 30.568L52.1724 30.05C52.3124 29.7327 52.5318 29.4433 52.8304 29.182C53.1384 28.9207 53.4884 28.7153 53.8804 28.566C54.2724 28.4073 54.6784 28.328 55.0984 28.328C55.6491 28.328 56.1344 28.4353 56.5544 28.65C56.9838 28.8647 57.3151 29.1633 57.5484 29.546C57.7911 29.9193 57.9124 30.3533 57.9124 30.848V36H56.8624V34.502L57.0164 34.656C56.8858 34.936 56.6804 35.1927 56.4004 35.426C56.1298 35.65 55.8078 35.832 55.4344 35.972C55.0704 36.1027 54.6691 36.168 54.2304 36.168ZM63.4601 36.168C62.7601 36.168 62.1301 36 61.5701 35.664C61.0101 35.3187 60.5668 34.852 60.2401 34.264C59.9228 33.6667 59.7641 32.9947 59.7641 32.248C59.7641 31.492 59.9228 30.82 60.2401 30.232C60.5668 29.644 61.0055 29.182 61.5561 28.846C62.1161 28.5007 62.7508 28.328 63.4601 28.328C64.1041 28.328 64.6781 28.468 65.1821 28.748C65.6861 29.028 66.0828 29.406 66.3721 29.882L66.2041 30.176V25.402H67.2541V36H66.2041V34.32L66.3721 34.474C66.1108 35.0153 65.7188 35.4353 65.1961 35.734C64.6828 36.0233 64.1041 36.168 63.4601 36.168ZM63.5161 35.118C64.0201 35.118 64.4728 34.992 64.8741 34.74C65.2848 34.488 65.6068 34.1473 65.8401 33.718C66.0828 33.2793 66.2041 32.7893 66.2041 32.248C66.2041 31.7067 66.0828 31.2213 65.8401 30.792C65.6068 30.3533 65.2848 30.008 64.8741 29.756C64.4728 29.504 64.0201 29.378 63.5161 29.378C63.0215 29.378 62.5735 29.504 62.1721 29.756C61.7708 30.008 61.4535 30.3487 61.2201 30.778C60.9961 31.2073 60.8841 31.6973 60.8841 32.248C60.8841 32.7893 60.9961 33.2793 61.2201 33.718C61.4535 34.1473 61.7661 34.488 62.1581 34.74C62.5595 34.992 63.0121 35.118 63.5161 35.118Z" fill="#2563EB"/>
</svg>
