<svg width="70" height="40" viewBox="0 0 70 40" fill="none" xmlns="http://www.w3.org/2000/svg">
<g clip-path="url(#clip0_1723_3491)">
<path d="M34.167 3.33344H30.667C29.2669 3.33344 28.5668 3.33344 28.032 3.60593C27.5616 3.84561 27.1792 4.22806 26.9395 4.69847C26.667 5.23324 26.667 5.93331 26.667 7.33344V14.3334C26.667 15.7336 26.667 16.4336 26.9395 16.9684C27.1792 17.4388 27.5616 17.8213 28.032 18.061C28.5668 18.3334 29.2669 18.3334 30.667 18.3334H37.667C39.0671 18.3334 39.7672 18.3334 40.302 18.061C40.7724 17.8213 41.1548 17.4388 41.3945 16.9684C41.667 16.4336 41.667 15.7336 41.667 14.3334V10.8334M31.667 13.3334H33.0624C33.4701 13.3334 33.6739 13.3334 33.8657 13.2874C34.0358 13.2466 34.1983 13.1792 34.3475 13.0878C34.5157 12.9848 34.6598 12.8406 34.948 12.5524L42.917 4.58344C43.6073 3.89309 43.6073 2.7738 42.917 2.08344C42.2266 1.39309 41.1073 1.39308 40.417 2.08344L32.448 10.0524C32.1598 10.3406 32.0156 10.4848 31.9126 10.653C31.8212 10.8021 31.7538 10.9647 31.713 11.1347C31.667 11.3265 31.667 11.5304 31.667 11.938V13.3334Z" stroke="#64748B" stroke-width="2" stroke-linecap="round" stroke-linejoin="round"/>
</g>
<path d="M22.9634 36V25.57H29.6834V26.62H24.0834V30.246H29.4034V31.296H24.0834V34.95H29.6834V36H22.9634ZM34.7697 36.168C34.0697 36.168 33.4397 36 32.8797 35.664C32.3197 35.3187 31.8764 34.852 31.5497 34.264C31.2324 33.6667 31.0737 32.9947 31.0737 32.248C31.0737 31.492 31.2324 30.82 31.5497 30.232C31.8764 29.644 32.315 29.182 32.8657 28.846C33.4257 28.5007 34.0604 28.328 34.7697 28.328C35.4137 28.328 35.9877 28.468 36.4917 28.748C36.9957 29.028 37.3924 29.406 37.6817 29.882L37.5137 30.176V25.402H38.5637V36H37.5137V34.32L37.6817 34.474C37.4204 35.0153 37.0284 35.4353 36.5057 35.734C35.9924 36.0233 35.4137 36.168 34.7697 36.168ZM34.8257 35.118C35.3297 35.118 35.7824 34.992 36.1837 34.74C36.5944 34.488 36.9164 34.1473 37.1497 33.718C37.3924 33.2793 37.5137 32.7893 37.5137 32.248C37.5137 31.7067 37.3924 31.2213 37.1497 30.792C36.9164 30.3533 36.5944 30.008 36.1837 29.756C35.7824 29.504 35.3297 29.378 34.8257 29.378C34.331 29.378 33.883 29.504 33.4817 29.756C33.0804 30.008 32.763 30.3487 32.5297 30.778C32.3057 31.2073 32.1937 31.6973 32.1937 32.248C32.1937 32.7893 32.3057 33.2793 32.5297 33.718C32.763 34.1473 33.0757 34.488 33.4677 34.74C33.869 34.992 34.3217 35.118 34.8257 35.118ZM40.7196 36V28.496H41.7696V36H40.7196ZM40.7196 27.11V25.57H41.7696V27.11H40.7196ZM46.7888 36.084C46.1168 36.084 45.5988 35.888 45.2348 35.496C44.8708 35.104 44.6888 34.544 44.6888 33.816V29.546H43.3028V28.496H43.6528C43.9702 28.496 44.2222 28.3933 44.4088 28.188C44.5955 27.9733 44.6888 27.7073 44.6888 27.39V26.76H45.7388V28.496H47.3908V29.546H45.7388V33.816C45.7388 34.068 45.7762 34.292 45.8508 34.488C45.9255 34.6747 46.0515 34.824 46.2288 34.936C46.4155 35.048 46.6628 35.104 46.9708 35.104C47.0455 35.104 47.1342 35.0993 47.2368 35.09C47.3395 35.0807 47.4282 35.0713 47.5028 35.062V36C47.3908 36.028 47.2648 36.0467 47.1248 36.056C46.9848 36.0747 46.8728 36.084 46.7888 36.084Z" fill="#64748B"/>
<defs>
<clipPath id="clip0_1723_3491">
<rect width="20" height="20" fill="white" transform="translate(25)"/>
</clipPath>
</defs>
</svg>
